# 3ds Max Wavefront OBJ Exporter v0.97b - (c)2007 guruware
# File Created: 26.08.2014 23:56:46

#
# object Image
#

v  -2.50000 4.00000 -2.50000
v  -2.50000 4.00000 2.50000
v  2.50000 4.00000 -2.50000
v  2.50000 4.00000 2.50000
# 4 vertices

vn 0.00000 1.00000 -0.00000
# 1 vertex normals

vt 0.00000 0.93750 0.00000
vt 0.00000 0.00000 0.00000
vt 0.93750 0.93750 0.00000
vt 0.93750 0.00000 0.00000
# 4 texture coords

g Image
f 1/1/1 2/2/1 3/3/1 
f 4/4/1 3/3/1 2/2/1 
# 2 faces

#
# object Legs
#

v  2.75000 2.50000 -3.10000
v  2.25000 2.50000 -3.10000
v  2.25000 2.50000 -2.95000
v  2.75000 2.50000 -2.95000
v  2.75000 2.00000 -3.20000
v  2.25000 2.00000 -3.20000
v  2.25000 2.40000 -3.20000
v  2.75000 2.40000 -3.20000
v  -2.25000 2.00000 -3.20000
v  -2.75000 2.00000 -3.20000
v  -2.75000 2.40000 -3.20000
v  -2.25000 2.40000 -3.20000
v  -2.75000 2.50000 -3.10000
v  -2.25000 2.50000 -3.10000
v  -2.75000 2.50000 -2.95000
v  -2.25000 2.50000 -2.95000
v  3.20000 2.00000 -2.25000
v  3.20000 2.00000 -2.75000
v  3.20000 2.40000 -2.75000
v  3.20000 2.40000 -2.25000
v  3.10000 2.50000 -2.75000
v  3.10000 2.50000 -2.25000
v  2.95000 2.50000 -2.75000
v  2.95000 2.50000 -2.25000
v  3.20000 2.00000 2.75000
v  3.20000 2.00000 2.25000
v  3.20000 2.40000 2.25000
v  3.20000 2.40000 2.75000
v  3.10000 2.50000 2.25000
v  3.10000 2.50000 2.75000
v  2.95000 2.50000 2.25000
v  2.95000 2.50000 2.75000
v  2.25000 2.00000 3.20000
v  2.75000 2.00000 3.20000
v  2.75000 2.40000 3.20000
v  2.25000 2.40000 3.20000
v  2.75000 2.50000 3.10000
v  2.25000 2.50000 3.10000
v  2.75000 2.50000 2.95000
v  2.25000 2.50000 2.95000
v  -2.75000 2.00000 3.20000
v  -2.25000 2.00000 3.20000
v  -2.25000 2.40000 3.20000
v  -2.75000 2.40000 3.20000
v  -2.25000 2.50000 3.10000
v  -2.75000 2.50000 3.10000
v  -2.25000 2.50000 2.95000
v  -2.75000 2.50000 2.95000
v  -3.20000 2.00000 2.25000
v  -3.20000 2.00000 2.75000
v  -3.20000 2.40000 2.75000
v  -3.20000 2.40000 2.25000
v  -3.10000 2.50000 2.75000
v  -3.10000 2.50000 2.25000
v  -2.95000 2.50000 2.75000
v  -2.95000 2.50000 2.25000
v  -3.20000 2.00000 -2.75000
v  -3.20000 2.00000 -2.25000
v  -3.20000 2.40000 -2.25000
v  -3.20000 2.40000 -2.75000
v  -3.10000 2.50000 -2.25000
v  -3.10000 2.50000 -2.75000
v  -2.95000 2.50000 -2.25000
v  -2.95000 2.50000 -2.75000
# 64 vertices

vn 0.00000 0.92388 -0.38268
vn 0.00000 1.00000 -0.00000
vn 0.00000 0.00000 -1.00000
vn 0.00000 0.38268 -0.92388
vn 1.00000 0.00000 0.00000
vn 1.00000 -0.00000 -0.00000
vn 0.92388 0.38268 0.00000
vn 0.38268 0.92388 0.00000
vn 0.00000 0.00000 1.00000
vn 0.00000 0.38268 0.92388
vn 0.00000 0.92388 0.38268
vn -1.00000 0.00000 -0.00000
vn -0.92388 0.38268 -0.00000
vn -0.38268 0.92388 -0.00000
# 14 vertex normals

vt -0.00000 0.98748 0.00000
vt 0.06259 0.98748 0.00000
vt 0.06259 1.00000 0.00000
vt -0.00000 1.00000 0.00000
vt -0.00000 0.93741 0.00000
vt 0.06259 0.93741 0.00000
vt 0.06259 0.97079 0.00000
vt -0.00000 0.97079 0.00000
vt 0.00000 0.93738 0.00000
vt 0.06262 0.93738 0.00000
vt 0.06262 0.97078 0.00000
vt 0.00000 0.97078 0.00000
vt 0.06262 0.98748 0.00000
vt 0.00000 0.98748 0.00000
vt 0.06262 1.00000 0.00000
vt 0.00000 1.00000 0.00000
vt 0.00000 0.93744 0.00000
vt 0.06256 0.93744 0.00000
vt 0.06256 0.97080 0.00000
vt 0.00000 0.97080 0.00000
vt 0.06256 0.98749 0.00000
vt 0.00000 0.98749 0.00000
vt 0.06256 1.00000 0.00000
vt 0.00000 0.93726 0.00000
vt 0.06254 0.93726 0.00000
vt 0.06254 0.97072 0.00000
vt 0.00000 0.97072 0.00000
vt 0.06254 0.98745 0.00000
vt 0.00000 0.98745 0.00000
vt 0.06254 1.00000 0.00000
vt 0.00000 0.93751 0.00000
vt 0.06252 0.93751 0.00000
vt 0.06252 0.97084 0.00000
vt 0.00000 0.97084 0.00000
vt 0.06252 0.98750 0.00000
vt 0.00000 0.98750 0.00000
vt 0.06252 1.00000 0.00000
vt 0.00000 0.93748 0.00000
vt 0.06249 0.93748 0.00000
vt 0.06249 0.97082 0.00000
vt 0.00000 0.97082 0.00000
vt 0.06249 0.98749 0.00000
vt 0.06249 1.00000 0.00000
vt 0.00000 0.93754 0.00000
vt 0.06249 0.93754 0.00000
vt 0.06249 0.97085 0.00000
vt 0.00000 0.97085 0.00000
vt 0.06249 0.98751 0.00000
vt 0.00000 0.98751 0.00000
vt -0.00000 0.93760 0.00000
vt 0.06247 0.93760 0.00000
vt 0.06247 0.97088 0.00000
vt -0.00000 0.97088 0.00000
vt 0.06247 0.98752 0.00000
vt -0.00000 0.98752 0.00000
vt 0.06247 1.00000 0.00000
# 56 texture coords

g Legs
f 5/5/2 6/6/2 7/7/3 
f 7/7/3 8/8/3 5/5/2 
f 9/9/4 10/10/4 11/11/5 
f 11/11/5 12/12/5 9/9/4 
f 11/11/5 6/6/2 5/5/2 
f 5/5/2 12/12/5 11/11/5 
f 13/13/4 14/14/4 15/15/5 
f 15/15/5 16/16/5 13/13/4 
f 15/15/5 17/17/2 18/18/2 
f 18/18/2 16/16/5 15/15/5 
f 18/18/2 17/17/2 19/19/3 
f 19/19/3 20/20/3 18/18/2 
f 21/21/6 22/22/7 23/23/8 
f 23/23/8 24/24/8 21/21/6 
f 23/23/8 25/25/9 26/26/9 
f 26/26/9 24/24/8 23/23/8 
f 26/26/9 25/25/9 27/27/3 
f 27/27/3 28/20/3 26/26/9 
f 29/28/6 30/29/7 31/30/8 
f 31/30/8 32/31/8 29/28/6 
f 31/30/8 33/32/9 34/33/9 
f 34/33/9 32/31/8 31/30/8 
f 34/33/9 33/32/9 35/34/3 
f 35/34/3 36/20/3 34/33/9 
f 37/35/10 38/36/10 39/37/11 
f 39/37/11 40/38/11 37/35/10 
f 39/37/11 41/39/12 42/40/12 
f 42/40/12 40/38/11 39/37/11 
f 42/40/12 41/39/12 43/41/3 
f 43/41/3 44/20/3 42/40/12 
f 45/42/10 46/43/10 47/44/11 
f 47/44/11 48/45/11 45/42/10 
f 47/44/11 49/46/12 50/26/12 
f 50/26/12 48/45/11 47/44/11 
f 50/26/12 49/46/12 51/47/3 
f 51/47/3 52/20/3 50/26/12 
f 53/48/13 54/49/13 55/50/14 
f 55/50/14 56/51/14 53/48/13 
f 55/50/14 57/52/15 58/53/15 
f 58/53/15 56/51/14 55/50/14 
f 58/53/15 57/52/15 59/47/3 
f 59/47/3 60/20/3 58/53/15 
f 61/54/13 62/55/13 63/56/14 
f 63/56/14 64/57/14 61/54/13 
f 63/56/14 65/58/15 66/59/15 
f 66/59/15 64/57/14 63/56/14 
f 66/59/15 65/58/15 67/60/3 
f 67/60/3 68/8/3 66/59/15 
# 48 faces

#
# object EventComponent
#

v  3.00000 3.00000 2.00000
v  2.00000 3.00000 2.00000
v  2.00000 3.00000 -2.00000
v  3.00000 3.00000 -2.00000
v  2.00000 3.00000 3.00000
v  3.00000 3.00000 3.00000
v  3.00000 4.00000 3.00000
v  -2.00000 3.00000 3.00000
v  -3.00000 3.00000 3.00000
v  -3.00000 4.00000 3.00000
v  3.00000 3.00000 -3.00000
v  3.00000 4.00000 -3.00000
v  -2.00000 3.00000 -3.00000
v  -3.00000 3.00000 -3.00000
v  -3.00000 4.00000 -3.00000
v  2.00000 3.00000 -3.00000
v  -3.00000 3.00000 2.00000
v  -3.00000 3.00000 -2.00000
v  -2.00000 3.00000 -2.00000
v  -2.00000 3.00000 2.00000
v  -3.00000 2.10000 -2.00000
v  -3.00000 2.10000 -3.00000
v  -2.00000 2.10000 -3.00000
v  -2.00000 2.10000 -2.00000
v  2.00000 2.10000 -3.00000
v  3.00000 2.10000 -3.00000
v  3.00000 2.10000 -2.00000
v  2.00000 2.10000 -2.00000
v  3.00000 2.10000 3.00000
v  2.00000 2.10000 3.00000
v  2.00000 2.10000 2.00000
v  3.00000 2.10000 2.00000
v  -2.00000 2.10000 3.00000
v  -3.00000 2.10000 3.00000
v  -3.00000 2.10000 2.00000
v  -2.00000 2.10000 2.00000
v  2.75000 4.25000 2.75000
v  -2.75000 4.25000 2.75000
v  2.75000 4.25000 -2.75000
v  -2.75000 4.25000 -2.75000
v  2.50000 4.25000 2.50000
v  -2.50000 4.25000 2.50000
v  2.50000 4.25000 -2.50000
v  -2.50000 4.25000 -2.50000
v  2.50000 4.00000 2.50000
v  -2.50000 4.00000 2.50000
v  2.50000 4.00000 -2.50000
v  -2.50000 4.00000 -2.50000
# 48 vertices

vn 0.00000 -1.00000 -0.00000
vn 0.00000 0.00000 1.00000
vn -0.00000 0.00000 1.00000
vn 1.00000 0.00000 -0.00000
vn 0.00000 0.00000 -1.00000
vn -1.00000 0.00000 -0.00000
vn 0.00000 0.70711 0.70711
vn 0.70711 0.70711 -0.00000
vn 0.00000 0.70711 -0.70711
vn -0.70711 0.70711 -0.00000
vn 0.00000 1.00000 -0.00000
# 11 vertex normals

vt 0.18750 0.40625 0.00000
vt 0.15625 0.40625 0.00000
vt 0.15625 0.28125 0.00000
vt 0.18750 0.28125 0.00000
vt 0.15625 0.09375 0.00000
vt 0.18750 0.09375 0.00000
vt 0.18750 0.12500 0.00000
vt 0.03125 0.09375 0.00000
vt 0.00000 0.09375 0.00000
vt 0.00000 0.12500 0.00000
vt 0.15625 0.15625 0.00000
vt 0.18750 0.15625 0.00000
vt 0.18750 0.18750 0.00000
vt 0.03125 0.15625 0.00000
vt 0.00000 0.15625 0.00000
vt 0.00000 0.18750 0.00000
vt 0.15625 0.21875 0.00000
vt 0.18750 0.21875 0.00000
vt 0.18750 0.25000 0.00000
vt 0.03125 0.21875 0.00000
vt 0.00000 0.21875 0.00000
vt 0.00000 0.25000 0.00000
vt 0.15625 0.03125 0.00000
vt 0.18750 0.03125 0.00000
vt 0.18750 0.06250 0.00000
vt 0.03125 0.03125 0.00000
vt 0.00000 0.03125 0.00000
vt 0.00000 0.06250 0.00000
vt 0.03125 0.28125 0.00000
vt 0.03125 0.40625 0.00000
vt 0.00000 0.28125 0.00000
vt 0.00000 0.40625 0.00000
vt 0.03125 0.25000 0.00000
vt 0.15625 0.25000 0.00000
vt 0.18750 0.43750 0.00000
vt 0.15625 0.43750 0.00000
vt 0.03125 0.43750 0.00000
vt 0.00000 0.43750 0.00000
vt 0.15625 0.18750 0.00000
vt 0.43750 0.40625 0.00000
vt 0.40625 0.40625 0.00000
vt 0.40625 0.37500 0.00000
vt 0.43750 0.37500 0.00000
vt 0.28125 0.34375 0.00000
vt 0.25000 0.34375 0.00000
vt 0.25000 0.31250 0.00000
vt 0.28125 0.31250 0.00000
vt 0.00000 0.00000 0.00000
vt 0.03125 0.00000 0.00000
vt 0.15625 0.12500 0.00000
vt 0.43750 0.34375 0.00000
vt 0.40625 0.34375 0.00000
vt 0.40625 0.31250 0.00000
vt 0.43750 0.31250 0.00000
vt 0.28125 0.28125 0.00000
vt 0.25000 0.28125 0.00000
vt 0.25000 0.25000 0.00000
vt 0.28125 0.25000 0.00000
vt 0.03125 0.18750 0.00000
vt 0.15625 0.06250 0.00000
vt 0.43750 0.28125 0.00000
vt 0.40625 0.28125 0.00000
vt 0.40625 0.25000 0.00000
vt 0.43750 0.25000 0.00000
vt 0.28125 0.46875 0.00000
vt 0.25000 0.46875 0.00000
vt 0.25000 0.43750 0.00000
vt 0.28125 0.43750 0.00000
vt 0.03125 0.12500 0.00000
vt 0.15625 0.00000 0.00000
vt 0.18750 0.00000 0.00000
vt 0.43750 0.46875 0.00000
vt 0.40625 0.46875 0.00000
vt 0.40625 0.43750 0.00000
vt 0.43750 0.43750 0.00000
vt 0.28125 0.40625 0.00000
vt 0.25000 0.40625 0.00000
vt 0.25000 0.37500 0.00000
vt 0.28125 0.37500 0.00000
vt 0.03125 0.06250 0.00000
vt 0.25000 0.09375 0.00000
vt 0.43750 0.09375 0.00000
vt 0.25000 0.15625 0.00000
vt 0.43750 0.15625 0.00000
vt 0.25000 0.21875 0.00000
vt 0.43750 0.21875 0.00000
vt 0.25000 0.03125 0.00000
vt 0.43750 0.03125 0.00000
vt 0.40625 0.12500 0.00000
vt 0.28125 0.12500 0.00000
vt 0.40625 0.18750 0.00000
vt 0.28125 0.18750 0.00000
vt 0.40625 0.06250 0.00000
vt 0.28125 0.06250 0.00000
vt 1.00000 0.00000 0.00000
vt 1.00000 1.00000 0.00000
vt 0.00000 1.00000 0.00000
# 97 texture coords

g EventComponent
f 69/61/16 70/62/16 71/63/16 
f 71/63/16 72/64/16 69/61/16 
f 73/65/17 74/66/17 75/67/17 
f 76/68/18 73/65/17 75/67/17 
f 77/69/17 76/68/18 75/67/17 
f 77/69/17 75/67/17 78/70/17 
f 72/71/19 79/72/19 80/73/19 
f 69/74/19 72/71/19 80/73/19 
f 74/75/19 69/74/19 80/73/19 
f 74/75/19 80/73/19 75/76/19 
f 81/77/20 82/78/20 83/79/20 
f 84/80/20 81/77/20 83/79/20 
f 79/81/20 84/80/20 83/79/20 
f 79/81/20 83/79/20 80/82/20 
f 85/83/21 77/84/21 78/85/21 
f 86/86/21 85/83/21 78/85/21 
f 82/87/21 86/86/21 78/85/21 
f 82/87/21 78/85/21 83/88/21 
f 87/89/16 71/63/16 70/62/16 
f 70/62/16 88/90/16 87/89/16 
f 86/91/16 87/89/16 88/90/16 
f 88/90/16 85/92/16 86/91/16 
f 89/91/16 90/82/16 91/93/16 
f 91/93/16 92/89/16 89/91/16 
f 87/89/16 81/93/16 84/94/16 
f 84/94/16 71/63/16 87/89/16 
f 93/94/16 94/79/16 95/64/16 
f 95/64/16 96/63/16 93/94/16 
f 97/95/16 98/96/16 99/62/16 
f 99/62/16 100/61/16 97/95/16 
f 73/96/16 76/97/16 88/90/16 
f 88/90/16 70/62/16 73/96/16 
f 101/97/16 102/98/16 103/92/16 
f 103/92/16 104/90/16 101/97/16 
f 82/78/20 81/77/20 91/99/20 
f 91/99/20 90/73/20 82/78/20 
f 81/100/19 87/101/19 92/102/19 
f 92/102/19 91/103/19 81/100/19 
f 87/104/17 86/105/17 89/106/17 
f 89/106/17 92/107/17 87/104/17 
f 86/86/21 82/87/21 90/108/21 
f 90/108/21 89/109/21 86/86/21 
f 79/72/19 72/71/19 95/110/19 
f 95/110/19 94/67/19 79/72/19 
f 72/111/17 71/112/17 96/113/17 
f 96/113/17 95/114/17 72/111/17 
f 71/115/21 84/116/21 93/117/21 
f 93/117/21 96/118/21 71/115/21 
f 84/80/20 79/81/20 94/76/20 
f 94/76/20 93/119/20 84/80/20 
f 74/66/17 73/65/17 98/120/17 
f 98/120/17 97/85/17 74/66/17 
f 73/121/21 70/122/21 99/123/21 
f 99/123/21 98/124/21 73/121/21 
f 70/125/20 69/126/20 100/127/20 
f 100/127/20 99/128/20 70/125/20 
f 69/74/19 74/75/19 97/70/19 
f 97/70/19 100/129/19 69/74/19 
f 77/84/21 85/83/21 103/130/21 
f 103/130/21 102/131/21 77/84/21 
f 85/132/20 88/133/20 104/134/20 
f 104/134/20 103/135/20 85/132/20 
f 88/136/19 76/137/19 101/138/19 
f 101/138/19 104/139/19 88/136/19 
f 76/68/17 77/69/17 102/88/17 
f 102/88/17 101/140/17 76/68/17 
f 78/141/22 75/142/22 105/142/22 
f 105/142/22 106/141/22 78/141/22 
f 75/143/23 80/144/23 107/144/23 
f 107/144/23 105/143/23 75/143/23 
f 80/145/24 83/146/24 108/146/24 
f 108/146/24 107/145/24 80/145/24 
f 83/147/25 78/148/25 106/148/25 
f 106/148/25 108/147/25 83/147/25 
f 106/141/26 105/142/26 109/149/26 
f 109/149/26 110/150/26 106/141/26 
f 105/143/26 107/144/26 111/151/26 
f 111/151/26 109/152/26 105/143/26 
f 107/145/26 108/146/26 112/123/26 
f 112/123/26 111/118/26 107/145/26 
f 108/147/26 106/148/26 110/153/26 
f 110/153/26 112/154/26 108/147/26 
f 110/108/20 109/155/20 113/155/20 
f 113/155/20 114/108/20 110/108/20 
f 109/155/21 111/156/21 115/156/21 
f 115/156/21 113/155/21 109/155/21 
f 111/156/17 112/157/17 116/157/17 
f 116/157/17 115/156/17 111/156/17 
f 112/157/19 110/108/19 114/108/19 
f 114/108/19 116/157/19 112/157/19 
# 90 faces

