# 3ds Max Wavefront OBJ Exporter v0.97b - (c)2007 guruware
# File Created: 14.08.2014 00:50:10

#
# object Active_Centre
#

v  -4.9975 1.0100 -4.9975
v  -4.9975 1.0100 4.9975
v  4.9975 1.0100 -4.9975
v  4.9975 1.0100 4.9975
# 4 vertices

vn 0.0000 1.0000 -0.0000
# 1 vertex normals

vt 0.1875 0.8125 0.0000
vt 0.1875 0.1875 0.0000
vt 0.8125 0.8125 0.0000
vt 0.8125 0.1875 0.0000
# 4 texture coords

g Active_Centre
f 1/1/1 2/2/1 3/3/1 
f 4/4/1 3/3/1 2/2/1 
# 2 faces

#
# object Active_South
#

v  -1.0162 2.5100 8.0234
v  1.0159 2.5100 8.0234
v  -1.0162 2.5100 4.9754
v  1.0158 2.5100 4.9754
# 4 vertices

vn 0.0000 1.0000 -0.0000
# 1 vertex normals

vt 0.1250 0.0000 0.0000
vt 0.1250 0.1875 0.0000
vt 0.0000 -0.0000 0.0000
vt 0.0000 0.1875 0.0000
# 4 texture coords

g Active_South
f 5/5/2 6/6/2 7/7/2 
f 8/8/2 7/7/2 6/6/2 
# 2 faces

#
# object Active_North
#

v  1.0159 2.5100 -8.0240
v  -1.0162 2.5100 -8.0240
v  1.0158 2.5100 -4.9760
v  -1.0162 2.5100 -4.9760
# 4 vertices

vn 0.0000 1.0000 -0.0000
# 1 vertex normals

vt 0.1250 0.0000 0.0000
vt 0.1250 0.1875 0.0000
vt 0.0000 -0.0000 0.0000
vt 0.0000 0.1875 0.0000
# 4 texture coords

g Active_North
f 9/9/3 10/10/3 11/11/3 
f 12/12/3 11/11/3 10/10/3 
# 2 faces

#
# object Active_East
#

v  8.0240 2.5100 1.0160
v  8.0240 2.5100 -1.0160
v  4.9760 2.5100 1.0160
v  4.9760 2.5100 -1.0160
# 4 vertices

vn 0.0000 1.0000 -0.0000
# 1 vertex normals

vt 0.1250 0.0000 0.0000
vt 0.1250 0.1875 0.0000
vt 0.0000 -0.0000 0.0000
vt 0.0000 0.1875 0.0000
# 4 texture coords

g Active_East
f 13/13/4 14/14/4 15/15/4 
f 16/16/4 15/15/4 14/14/4 
# 2 faces

#
# object Active_West
#

v  -8.0240 2.5101 -1.0160
v  -8.0240 2.5101 1.0160
v  -4.9760 2.5101 -1.0160
v  -4.9760 2.5101 1.0160
# 4 vertices

vn 0.0000 1.0000 -0.0000
# 1 vertex normals

vt 0.1250 0.0000 0.0000
vt 0.1250 0.1875 0.0000
vt 0.0000 -0.0000 0.0000
vt 0.0000 0.1875 0.0000
# 4 texture coords

g Active_West
f 17/17/5 18/18/5 19/19/5 
f 20/20/5 19/19/5 18/18/5 
# 2 faces

#
# object plate
#

v  8.0002 0.0000 -8.0000
v  8.0002 0.0000 8.0000
v  -7.9999 0.0000 8.0000
v  -7.9999 0.0000 -8.0000
v  -0.9998 2.5000 -8.0000
v  -0.9998 3.0000 -8.0000
v  -0.9998 3.0000 -5.0000
v  -0.9998 2.5000 -5.0000
v  1.0002 2.5000 -8.0000
v  1.0002 2.5000 -5.0000
v  1.0002 3.0000 -5.0000
v  1.0002 3.0000 -8.0000
v  1.0002 2.5000 8.0000
v  1.0002 3.0000 8.0000
v  1.0002 3.0000 5.0000
v  1.0000 2.5000 5.0000
v  -0.9998 2.5000 8.0000
v  -0.9998 2.5000 5.0000
v  -0.9998 3.0000 5.0000
v  -0.9998 3.0000 8.0000
v  -5.0000 2.5000 1.0000
v  -7.9999 2.5000 1.0000
v  -7.9999 3.0000 1.0000
v  -5.0000 3.0000 1.0000
v  -7.9999 3.0000 -1.0000
v  -7.9999 2.5000 -1.0000
v  -5.0000 2.5000 -1.0000
v  -5.0000 3.0000 -1.0000
v  8.0002 3.0000 1.0000
v  8.0002 2.5000 1.0000
v  5.0000 2.5000 1.0000
v  5.0000 3.0000 1.0000
v  8.0002 3.0000 -1.0000
v  5.0000 3.0000 -1.0000
v  5.0000 2.5000 -1.0000
v  8.0002 2.5000 -1.0000
v  1.9999 3.0000 7.0000
v  1.9999 3.0000 8.0000
v  2.0000 2.0000 8.0000
v  6.9999 3.0000 2.0000
v  8.0002 2.0000 2.0000
v  8.0002 3.0000 2.0000
v  6.9999 3.0000 7.0000
v  8.0002 2.0000 8.0000
v  6.9999 3.0000 -2.0000
v  8.0002 3.0000 -2.0000
v  7.9999 2.0000 -2.0000
v  1.9999 3.0000 -7.0000
v  1.9999 2.0000 -8.0000
v  1.9999 3.0000 -8.0000
v  -2.0002 3.0000 -7.0000
v  -2.0002 3.0000 -8.0000
v  -2.0002 2.0000 -8.0000
v  -7.0002 3.0000 -2.0000
v  -7.9999 2.0000 -2.0000
v  -8.0002 3.0000 -2.0000
v  -7.0002 3.0000 2.0000
v  -8.0002 3.0000 2.0000
v  -7.9999 2.0000 2.0000
v  -2.0002 3.0000 7.0000
v  -2.0002 2.0000 8.0000
v  -2.0002 3.0000 8.0000
v  -7.0002 3.0000 -7.0000
v  -8.0002 2.0000 -8.0000
v  6.9999 3.0000 -7.0000
v  7.9999 2.0000 -8.0000
v  -7.0002 3.0000 7.0000
v  -7.9999 2.0056 8.0000
v  -5.0000 3.0000 5.0000
v  -5.0000 3.0000 -5.0000
v  5.0000 3.0000 -5.0000
v  5.0000 3.0000 5.0000
v  5.0000 1.0000 5.0000
v  5.0000 1.0000 -5.0000
v  -5.0000 1.0000 -5.0000
v  -5.0000 1.0000 5.0000
# 76 vertices

vn 0.0000 -1.0000 -0.0000
vn 1.0000 0.0000 -0.0000
vn -1.0000 0.0000 -0.0000
vn -1.0000 0.0000 0.0000
vn -1.0000 0.0003 0.0000
vn -1.0000 0.0003 0.0001
vn 0.0000 0.0000 -1.0000
vn 0.0000 0.0000 1.0000
vn 1.0000 0.0001 -0.0000
vn 0.7070 0.7072 -0.0000
vn 0.0000 0.7071 0.7071
vn -0.7072 0.7070 0.0000
vn -0.7072 0.7070 -0.0000
vn -0.7071 0.7071 0.0000
vn 0.0000 0.7071 -0.7071
vn 0.7071 0.7071 0.0000
vn 0.7071 0.7071 -0.0000
vn 0.0001 0.7074 0.7068
vn 0.0006 0.7085 0.7057
vn 0.0007 0.7087 0.7055
vn -0.7069 0.7073 -0.0006
vn -0.7072 0.7070 -0.0007
vn -0.7057 0.7085 -0.0002
vn -0.7052 0.7090 -0.0000
vn -0.0000 0.7071 -0.7071
vn -1.0000 -0.0003 -0.0003
vn -1.0000 0.0000 0.0003
vn -1.0000 -0.0003 0.0002
vn -1.0000 -0.0002 0.0001
vn 1.0000 -0.0003 0.0000
vn 1.0000 0.0000 -0.0003
vn 1.0000 -0.0006 -0.0000
vn 1.0000 -0.0002 -0.0001
vn 1.0000 0.0002 -0.0000
vn 0.0000 1.0000 0.0000
vn 0.0000 1.0000 -0.0000
vn -0.0000 1.0000 -0.0000
vn -0.0000 1.0000 0.0000
vn 1.0000 -0.0000 0.0000
vn 0.0000 -0.0000 -1.0000
vn -0.0000 -0.0000 -1.0000
vn -1.0000 -0.0000 -0.0000
# 42 vertex normals

vt 0.5000 -0.0000 0.0000
vt 0.5000 0.5000 0.0000
vt 0.0000 0.5000 0.0000
vt 0.0000 -0.0000 0.0000
vt 0.6875 0.0000 0.0000
vt 0.7188 0.0000 0.0000
vt 0.7188 0.0938 0.0000
vt 0.6875 0.0938 0.0000
vt 0.7813 0.5000 0.0000
vt 0.7813 0.4063 0.0000
vt 0.8125 0.4063 0.0000
vt 0.8125 0.5000 0.0000
vt 0.7813 0.0000 0.0000
vt 0.8125 0.0000 0.0000
vt 0.8125 0.0938 0.0000
vt 0.7813 0.0938 0.0000
vt 0.6875 0.5000 0.0000
vt 0.6875 0.4063 0.0000
vt 0.7188 0.4063 0.0000
vt 0.7188 0.5000 0.0000
vt 0.9063 0.1875 0.0000
vt 1.0000 0.1875 0.0000
vt 1.0000 0.2188 0.0000
vt 0.9063 0.2188 0.0000
vt 1.0000 0.2813 0.0000
vt 1.0000 0.3125 0.0000
vt 0.9063 0.3125 0.0000
vt 0.9063 0.2813 0.0000
vt 0.5000 0.2188 0.0000
vt 0.5000 0.1875 0.0000
vt 0.5938 0.1875 0.0000
vt 0.5938 0.2188 0.0000
vt 0.5000 0.2813 0.0000
vt 0.5938 0.2813 0.0000
vt 0.5938 0.3125 0.0000
vt 0.5000 0.3125 0.0000
vt 0.0313 0.8438 0.0000
vt 0.0000 0.8438 0.0000
vt 0.0000 0.8125 0.0000
vt 0.4688 0.7188 0.0000
vt 0.5000 0.6875 0.0000
vt 0.5000 0.7188 0.0000
vt 0.6875 0.8125 0.0000
vt 0.6875 0.8438 0.0000
vt 0.5313 0.8438 0.0000
vt 0.5000 0.8125 0.0000
vt 1.0000 0.6875 0.0000
vt 0.9688 0.7188 0.0000
vt 0.8125 0.7188 0.0000
vt 0.8125 0.6875 0.0000
vt 0.0313 0.9688 0.0000
vt 0.0000 0.9688 0.0000
vt 0.0000 0.9375 0.0000
vt 0.4688 0.8438 0.0000
vt 0.5000 0.8438 0.0000
vt 0.0313 0.5938 0.0000
vt 0.0000 0.5938 0.0000
vt 0.0000 0.5625 0.0000
vt 0.4688 0.9688 0.0000
vt 0.5000 0.9375 0.0000
vt 0.5000 0.9688 0.0000
vt 0.0313 0.7188 0.0000
vt 0.0000 0.7188 0.0000
vt 0.0000 0.6875 0.0000
vt 0.4688 0.5938 0.0000
vt 0.5000 0.5625 0.0000
vt 0.5000 0.5938 0.0000
vt 0.6875 0.5625 0.0000
vt 0.6875 0.5938 0.0000
vt 0.5313 0.5938 0.0000
vt 0.6875 0.9375 0.0000
vt 0.6875 0.9688 0.0000
vt 0.5313 0.9688 0.0000
vt 0.8125 0.8438 0.0000
vt 0.8125 0.8125 0.0000
vt 1.0000 0.8125 0.0000
vt 0.9688 0.8438 0.0000
vt 0.6875 0.6875 0.0000
vt 0.6875 0.7188 0.0000
vt 0.5313 0.7188 0.0000
vt 0.8125 0.5938 0.0000
vt 0.8125 0.5625 0.0000
vt 1.0000 0.5625 0.0000
vt 0.9688 0.5938 0.0000
vt 1.0000 0.9375 0.0000
vt 0.9688 0.9688 0.0000
vt 0.8125 0.9688 0.0000
vt 0.8125 0.9375 0.0000
vt 0.7813 0.5938 0.0000
vt 0.7813 0.5790 0.0000
vt 0.7188 0.5790 0.0000
vt 0.7188 0.5938 0.0000
vt 1.0000 0.5000 0.0000
vt 0.7813 0.9688 0.0000
vt 0.7813 0.9540 0.0000
vt 0.7188 0.9540 0.0000
vt 0.7188 0.9688 0.0000
vt 0.5000 0.8750 0.0000
vt 1.0000 0.8750 0.0000
vt 0.7188 0.8438 0.0000
vt 0.7188 0.8290 0.0000
vt 0.7813 0.8290 0.0000
vt 0.7813 0.8438 0.0000
vt 1.0000 0.7500 0.0000
vt 0.5000 0.7500 0.0000
vt 0.7188 0.7188 0.0000
vt 0.7188 0.7040 0.0000
vt 0.7813 0.7040 0.0000
vt 0.7813 0.7188 0.0000
vt 1.0000 0.6250 0.0000
vt 0.5000 0.6250 0.0000
vt 0.5313 0.1875 0.0000
vt 0.5938 0.0938 0.0000
vt 0.5313 0.0313 0.0000
vt 0.6875 0.0313 0.0000
vt 0.6875 0.4688 0.0000
vt 0.5938 0.4063 0.0000
vt 0.5313 0.4688 0.0000
vt 0.5313 0.3125 0.0000
vt 0.9688 0.3125 0.0000
vt 0.9063 0.4063 0.0000
vt 0.9688 0.4688 0.0000
vt 0.8125 0.4688 0.0000
vt 0.9688 0.1875 0.0000
vt 0.9688 0.0313 0.0000
vt 0.9063 0.0938 0.0000
vt 0.8125 0.0313 0.0000
vt 0.7188 -0.0000 0.0000
vt 0.7813 -0.0000 0.0000
vt 0.4063 0.7813 0.0000
vt 0.4063 0.8438 0.0000
vt 0.2813 0.8438 0.0000
vt 0.2813 0.8290 0.0000
vt 0.2188 0.8290 0.0000
vt 0.2188 0.8438 0.0000
vt 0.0938 0.8438 0.0000
vt 0.0938 0.7813 0.0000
vt 0.4063 0.9688 0.0000
vt 0.2813 0.9688 0.0000
vt 0.2813 0.9540 0.0000
vt 0.2188 0.9540 0.0000
vt 0.2188 0.9688 0.0000
vt 0.0938 0.9688 0.0000
vt 0.0938 0.9063 0.0000
vt 0.4063 0.9063 0.0000
vt 0.2813 0.5790 0.0000
vt 0.2813 0.5938 0.0000
vt 0.4063 0.5938 0.0000
vt 0.4063 0.5313 0.0000
vt 0.0938 0.5313 0.0000
vt 0.2188 0.5790 0.0000
vt 0.2188 0.5938 0.0000
vt 0.0938 0.5938 0.0000
vt 0.4063 0.7188 0.0000
vt 0.2813 0.7188 0.0000
vt 0.2813 0.7040 0.0000
vt 0.2188 0.7040 0.0000
vt 0.2188 0.7188 0.0000
vt 0.0938 0.7188 0.0000
vt 0.0938 0.6563 0.0000
vt 0.4063 0.6563 0.0000
# 161 texture coords

g plate
f 21/21/6 22/22/6 23/23/6 
f 23/23/6 24/24/6 21/21/6 
f 25/25/7 26/26/7 27/27/7 
f 27/27/7 28/28/7 25/25/7 
f 29/29/8 30/30/8 31/31/8 
f 31/31/8 32/32/8 29/29/8 
f 33/33/9 34/34/8 35/35/10 
f 35/35/10 36/36/11 33/33/9 
f 37/37/7 38/38/7 39/39/7 
f 39/39/7 40/40/7 37/37/7 
f 41/41/12 42/42/12 43/43/12 
f 43/43/12 44/44/12 41/41/12 
f 45/45/13 46/46/13 47/47/13 
f 47/47/13 48/48/13 45/45/13 
f 49/49/12 50/50/12 51/51/12 
f 51/51/12 52/52/12 49/49/12 
f 53/53/13 54/54/13 55/55/13 
f 55/55/13 56/56/13 53/53/13 
f 57/57/14 58/58/14 59/59/14 
f 60/60/13 61/61/13 62/62/13 
f 61/63/15 60/64/15 63/65/15 
f 63/65/15 64/66/15 61/63/15 
f 64/67/16 63/68/16 57/69/16 
f 57/69/16 59/70/16 64/67/16 
f 65/71/12 66/72/12 67/73/12 
f 68/74/7 69/66/7 70/75/7 
f 71/76/8 72/77/8 73/78/8 
f 74/79/12 75/80/12 76/81/12 
f 77/82/13 78/83/13 79/84/13 
f 80/85/8 81/86/8 82/87/8 
f 75/88/17 74/89/18 83/90/19 
f 83/90/19 84/86/19 75/88/17 
f 69/91/20 68/92/20 85/93/20 
f 85/93/20 86/80/20 69/91/20 
f 65/94/21 67/95/22 86/96/21 
f 86/96/21 85/97/21 65/94/21 
f 81/98/23 80/99/16 87/100/24 
f 87/100/24 88/61/25 81/98/23 
f 77/101/26 79/102/27 88/103/28 
f 88/103/28 87/104/29 77/101/26 
f 84/105/30 83/106/30 71/107/30 
f 71/107/30 73/108/20 84/105/30 
f 79/102/31 78/101/31 43/109/31 
f 79/102/8 43/109/8 42/110/8 
f 79/102/8 42/110/8 46/111/8 
f 46/111/32 45/112/32 76/89/32 
f 46/111/33 76/89/33 75/88/33 
f 79/102/8 46/111/8 75/88/8 
f 75/88/34 84/86/34 24/22/34 
f 79/102/8 75/88/8 24/22/8 
f 88/103/8 79/102/8 24/22/8 
f 88/103/8 24/22/8 23/113/8 
f 73/108/12 72/107/12 26/114/12 
f 73/108/12 26/114/12 25/115/12 
f 73/108/12 25/115/12 29/116/12 
f 29/116/12 32/117/12 70/92/12 
f 29/116/12 70/92/12 69/91/12 
f 73/108/12 29/116/12 69/91/12 
f 69/91/12 86/80/12 21/118/12 
f 73/108/12 69/91/12 21/118/12 
f 84/105/12 73/108/12 21/118/12 
f 84/105/12 21/118/12 24/119/12 
f 67/63/35 66/64/35 53/120/35 
f 67/63/36 53/120/36 56/121/36 
f 67/63/37 56/121/37 50/122/37 
f 50/122/7 49/123/7 62/94/7 
f 50/122/7 62/94/7 61/95/7 
f 67/63/38 50/122/38 61/95/38 
f 61/95/7 64/96/7 22/124/7 
f 67/63/38 61/95/38 22/124/38 
f 86/66/39 67/63/39 22/124/39 
f 86/66/39 22/124/39 21/125/39 
f 59/98/13 58/99/13 34/126/13 
f 59/98/13 34/126/13 33/127/13 
f 59/98/13 33/127/13 37/128/13 
f 37/128/13 40/129/13 82/69/13 
f 37/128/13 82/69/13 81/70/13 
f 59/98/13 37/128/13 81/70/13 
f 81/70/13 88/67/13 23/130/13 
f 59/98/13 81/70/13 23/130/13 
f 64/61/13 59/98/13 23/130/13 
f 64/61/13 23/130/13 22/131/13 
f 44/52/40 43/49/40 78/50/40 
f 44/52/41 78/50/41 77/132/41 
f 89/133/41 44/52/41 77/132/41 
f 89/133/42 77/132/42 87/134/42 
f 39/27/40 89/133/40 87/134/40 
f 39/27/40 87/134/40 80/135/40 
f 39/27/41 80/135/41 82/25/41 
f 39/27/42 82/25/42 40/26/42 
f 27/39/40 26/40/40 72/37/40 
f 27/39/41 72/37/41 71/136/41 
f 90/137/40 27/39/40 71/136/40 
f 90/137/42 71/136/42 83/138/42 
f 74/139/41 76/56/41 45/53/41 
f 74/139/40 45/53/40 48/54/40 
f 83/138/41 74/139/41 48/54/41 
f 90/137/43 83/138/43 48/54/43 
f 54/48/42 53/45/42 66/46/42 
f 54/48/41 66/46/41 65/140/41 
f 91/141/42 54/48/42 65/140/42 
f 91/141/43 65/140/43 85/142/43 
f 31/30/40 91/141/40 85/142/40 
f 31/30/40 85/142/40 68/143/40 
f 31/30/42 68/143/42 70/32/42 
f 31/30/40 70/32/40 32/29/40 
f 60/144/41 62/42/41 49/43/41 
f 60/144/42 49/43/42 52/44/42 
f 63/145/42 60/144/42 52/44/42 
f 63/145/43 52/44/43 92/146/43 
f 57/147/41 63/145/41 92/146/41 
f 57/147/41 92/146/41 35/36/41 
f 58/34/42 57/147/42 35/36/42 
f 58/34/41 35/36/41 34/33/41 
f 29/29/41 25/40/41 28/39/41 
f 28/39/41 30/30/41 29/29/41 
f 51/44/41 50/43/41 56/45/41 
f 56/45/41 55/48/41 51/44/41 
f 38/27/41 37/148/41 33/149/41 
f 33/149/41 36/36/41 38/27/41 
f 47/54/41 46/53/41 42/49/41 
f 42/49/41 41/52/41 47/54/41 
f 93/146/41 94/141/41 95/137/41 
f 95/137/42 96/133/42 93/146/42 
f 95/150/7 90/151/7 48/152/7 
f 95/150/7 48/152/7 47/153/7 
f 95/150/44 47/153/44 41/154/44 
f 41/154/7 44/155/7 89/156/7 
f 95/150/7 41/154/7 89/156/7 
f 95/150/7 89/156/7 96/157/7 
f 89/158/12 39/159/12 38/160/12 
f 36/161/45 35/162/45 92/163/45 
f 36/161/12 92/163/12 93/164/12 
f 38/160/12 36/161/12 93/164/12 
f 89/158/12 38/160/12 93/164/12 
f 96/165/46 89/158/46 93/164/46 
f 55/166/8 54/167/8 91/168/8 
f 91/168/8 94/169/8 93/170/8 
f 55/166/47 91/168/47 93/170/47 
f 51/171/47 55/166/47 93/170/47 
f 52/172/9 51/171/9 93/170/9 
f 52/172/8 93/170/8 92/173/8 
f 91/174/13 31/175/13 30/176/13 
f 28/177/13 27/178/13 90/179/13 
f 28/177/13 90/179/13 95/180/13 
f 30/176/13 28/177/13 95/180/13 
f 91/174/13 30/176/13 95/180/13 
f 91/174/13 95/180/13 94/181/13 
# 148 faces

#
# object SolderSpot006
#

v  -6.0000 3.0500 4.0000
v  -6.0000 3.0500 5.0000
v  -5.0000 3.0500 5.0000
v  -5.0000 3.0500 4.0000
v  -6.0000 2.9500 4.0000
v  -6.0000 2.9500 5.0000
v  -5.0000 2.9500 5.0000
v  -5.0000 2.9500 4.0000
# 8 vertices

vn 0.0000 1.0000 -0.0000
vn -1.0000 0.0000 0.0000
vn 0.0000 0.0000 1.0000
vn 1.0000 0.0000 -0.0000
vn -0.0000 0.0000 -1.0000
# 5 vertex normals

vt 0.0625 0.5625 0.0000
vt 0.0938 0.5625 0.0000
vt 0.0938 0.5938 0.0000
vt 0.0625 0.5938 0.0000
vt 0.0313 0.2813 0.0000
vt 0.0313 0.2826 0.0000
vt 0.0469 0.2813 0.0000
vt 0.0469 0.2826 0.0000
# 8 texture coords

g SolderSpot006
f 97/182/48 98/183/48 99/184/48 
f 99/184/48 100/185/48 97/182/48 
f 101/186/49 102/186/49 98/187/49 
f 98/187/49 97/187/49 101/186/49 
f 102/186/50 103/186/50 99/187/50 
f 99/187/50 98/187/50 102/186/50 
f 103/188/51 104/188/51 100/189/51 
f 100/189/51 99/189/51 103/188/51 
f 104/188/52 101/188/52 97/189/52 
f 97/189/52 100/189/52 104/188/52 
# 10 faces

#
# object SolderSpot005
#

v  -5.0000 3.0500 5.0000
v  -5.0000 3.0500 6.0000
v  -4.0000 3.0500 6.0000
v  -4.0000 3.0500 5.0000
v  -5.0000 2.9500 5.0000
v  -5.0000 2.9500 6.0000
v  -4.0000 2.9500 6.0000
v  -4.0000 2.9500 5.0000
# 8 vertices

vn 0.0000 1.0000 -0.0000
vn -1.0000 0.0000 0.0000
vn 0.0000 0.0000 1.0000
vn 1.0000 0.0000 -0.0000
vn -0.0000 0.0000 -1.0000
# 5 vertex normals

vt 0.0625 0.5625 0.0000
vt 0.0938 0.5625 0.0000
vt 0.0938 0.5938 0.0000
vt 0.0625 0.5938 0.0000
vt 0.0313 0.2813 0.0000
vt 0.0313 0.2826 0.0000
vt 0.0469 0.2813 0.0000
vt 0.0469 0.2826 0.0000
# 8 texture coords

g SolderSpot005
f 105/190/53 106/191/53 107/192/53 
f 107/192/53 108/193/53 105/190/53 
f 109/194/54 110/194/54 106/195/54 
f 106/195/54 105/195/54 109/194/54 
f 110/194/55 111/194/55 107/195/55 
f 107/195/55 106/195/55 110/194/55 
f 111/196/56 112/196/56 108/197/56 
f 108/197/56 107/197/56 111/196/56 
f 112/196/57 109/196/57 105/197/57 
f 105/197/57 108/197/57 112/196/57 
# 10 faces

#
# object SolderSpot004
#

v  4.0000 3.0500 5.0000
v  4.0000 3.0500 6.0000
v  5.0000 3.0500 6.0000
v  5.0000 3.0500 5.0000
v  4.0000 2.9500 5.0000
v  4.0000 2.9500 6.0000
v  5.0000 2.9500 6.0000
v  5.0000 2.9500 5.0000
# 8 vertices

vn 0.0000 1.0000 -0.0000
vn -1.0000 0.0000 0.0000
vn 0.0000 0.0000 1.0000
vn 1.0000 0.0000 -0.0000
vn -0.0000 0.0000 -1.0000
# 5 vertex normals

vt 0.0625 0.5625 0.0000
vt 0.0938 0.5625 0.0000
vt 0.0938 0.5938 0.0000
vt 0.0625 0.5938 0.0000
vt 0.0313 0.2813 0.0000
vt 0.0313 0.2826 0.0000
vt 0.0469 0.2813 0.0000
vt 0.0469 0.2826 0.0000
# 8 texture coords

g SolderSpot004
f 113/198/58 114/199/58 115/200/58 
f 115/200/58 116/201/58 113/198/58 
f 117/202/59 118/202/59 114/203/59 
f 114/203/59 113/203/59 117/202/59 
f 118/202/60 119/202/60 115/203/60 
f 115/203/60 114/203/60 118/202/60 
f 119/204/61 120/204/61 116/205/61 
f 116/205/61 115/205/61 119/204/61 
f 120/204/62 117/204/62 113/205/62 
f 113/205/62 116/205/62 120/204/62 
# 10 faces

#
# object SolderSpot003
#

v  5.0000 3.0500 4.0000
v  5.0000 3.0500 5.0000
v  6.0000 3.0500 5.0000
v  6.0000 3.0500 4.0000
v  5.0000 2.9500 4.0000
v  5.0000 2.9500 5.0000
v  6.0000 2.9500 5.0000
v  6.0000 2.9500 4.0000
# 8 vertices

vn 0.0000 1.0000 -0.0000
vn -1.0000 0.0000 0.0000
vn 0.0000 0.0000 1.0000
vn 1.0000 0.0000 -0.0000
vn -0.0000 0.0000 -1.0000
# 5 vertex normals

vt 0.0625 0.5625 0.0000
vt 0.0938 0.5625 0.0000
vt 0.0938 0.5938 0.0000
vt 0.0625 0.5938 0.0000
vt 0.0313 0.2813 0.0000
vt 0.0313 0.2826 0.0000
vt 0.0469 0.2813 0.0000
vt 0.0469 0.2826 0.0000
# 8 texture coords

g SolderSpot003
f 121/206/63 122/207/63 123/208/63 
f 123/208/63 124/209/63 121/206/63 
f 125/210/64 126/210/64 122/211/64 
f 122/211/64 121/211/64 125/210/64 
f 126/210/65 127/210/65 123/211/65 
f 123/211/65 122/211/65 126/210/65 
f 127/212/66 128/212/66 124/213/66 
f 124/213/66 123/213/66 127/212/66 
f 128/212/67 125/212/67 121/213/67 
f 121/213/67 124/213/67 128/212/67 
# 10 faces

#
# object SolderSpot002
#

v  5.0001 3.0500 -5.0000
v  5.0001 3.0500 -4.0000
v  6.0001 3.0500 -4.0000
v  6.0001 3.0500 -5.0000
v  5.0001 2.9500 -5.0000
v  5.0001 2.9500 -4.0000
v  6.0001 2.9500 -4.0000
v  6.0001 2.9500 -5.0000
# 8 vertices

vn 0.0000 1.0000 -0.0000
vn -1.0000 0.0000 0.0000
vn 0.0000 0.0000 1.0000
vn 1.0000 0.0000 -0.0000
vn -0.0000 0.0000 -1.0000
# 5 vertex normals

vt 0.0625 0.5625 0.0000
vt 0.0938 0.5625 0.0000
vt 0.0938 0.5938 0.0000
vt 0.0625 0.5938 0.0000
vt 0.0313 0.2813 0.0000
vt 0.0313 0.2826 0.0000
vt 0.0469 0.2813 0.0000
vt 0.0469 0.2826 0.0000
# 8 texture coords

g SolderSpot002
f 129/214/68 130/215/68 131/216/68 
f 131/216/68 132/217/68 129/214/68 
f 133/218/69 134/218/69 130/219/69 
f 130/219/69 129/219/69 133/218/69 
f 134/218/70 135/218/70 131/219/70 
f 131/219/70 130/219/70 134/218/70 
f 135/220/71 136/220/71 132/221/71 
f 132/221/71 131/221/71 135/220/71 
f 136/220/72 133/220/72 129/221/72 
f 129/221/72 132/221/72 136/220/72 
# 10 faces

#
# object SolderSpot001
#

v  4.0000 3.0500 -6.0000
v  4.0000 3.0500 -5.0000
v  5.0000 3.0500 -5.0000
v  5.0000 3.0500 -6.0000
v  4.0000 2.9500 -6.0000
v  4.0000 2.9500 -5.0000
v  5.0000 2.9500 -5.0000
v  5.0000 2.9500 -6.0000
# 8 vertices

vn 0.0000 1.0000 -0.0000
vn -1.0000 0.0000 0.0000
vn 0.0000 0.0000 1.0000
vn 1.0000 0.0000 -0.0000
vn -0.0000 0.0000 -1.0000
# 5 vertex normals

vt 0.0625 0.5625 0.0000
vt 0.0938 0.5625 0.0000
vt 0.0938 0.5938 0.0000
vt 0.0625 0.5938 0.0000
vt 0.0313 0.2813 0.0000
vt 0.0313 0.2826 0.0000
vt 0.0469 0.2813 0.0000
vt 0.0469 0.2826 0.0000
# 8 texture coords

g SolderSpot001
f 137/222/73 138/223/73 139/224/73 
f 139/224/73 140/225/73 137/222/73 
f 141/226/74 142/226/74 138/227/74 
f 138/227/74 137/227/74 141/226/74 
f 142/226/75 143/226/75 139/227/75 
f 139/227/75 138/227/75 142/226/75 
f 143/228/76 144/228/76 140/229/76 
f 140/229/76 139/229/76 143/228/76 
f 144/228/77 141/228/77 137/229/77 
f 137/229/77 140/229/77 144/228/77 
# 10 faces

#
# object SolderSpot008
#

v  -5.0000 3.0500 -6.0000
v  -5.0000 3.0500 -5.0000
v  -4.0000 3.0500 -5.0000
v  -4.0000 3.0500 -6.0000
v  -5.0000 2.9500 -6.0000
v  -5.0000 2.9500 -5.0000
v  -4.0000 2.9500 -5.0000
v  -4.0000 2.9500 -6.0000
# 8 vertices

vn 0.0000 1.0000 -0.0000
vn -1.0000 0.0000 0.0000
vn 0.0000 0.0000 1.0000
vn 1.0000 0.0000 -0.0000
vn -0.0000 0.0000 -1.0000
# 5 vertex normals

vt 0.0625 0.5625 0.0000
vt 0.0938 0.5625 0.0000
vt 0.0938 0.5938 0.0000
vt 0.0625 0.5938 0.0000
vt 0.0313 0.2813 0.0000
vt 0.0313 0.2826 0.0000
vt 0.0469 0.2813 0.0000
vt 0.0469 0.2826 0.0000
# 8 texture coords

g SolderSpot008
f 145/230/78 146/231/78 147/232/78 
f 147/232/78 148/233/78 145/230/78 
f 149/234/79 150/234/79 146/235/79 
f 146/235/79 145/235/79 149/234/79 
f 150/234/80 151/234/80 147/235/80 
f 147/235/80 146/235/80 150/234/80 
f 151/236/81 152/236/81 148/237/81 
f 148/237/81 147/237/81 151/236/81 
f 152/236/82 149/236/82 145/237/82 
f 145/237/82 148/237/82 152/236/82 
# 10 faces

#
# object SolderSpot007
#

v  -6.0000 3.0500 -5.0000
v  -6.0000 3.0500 -4.0000
v  -5.0000 3.0500 -4.0000
v  -5.0000 3.0500 -5.0000
v  -6.0000 2.9500 -5.0000
v  -6.0000 2.9500 -4.0000
v  -5.0000 2.9500 -4.0000
v  -5.0000 2.9500 -5.0000
# 8 vertices

vn 0.0000 1.0000 -0.0000
vn -1.0000 0.0000 0.0000
vn 0.0000 0.0000 1.0000
vn 1.0000 0.0000 -0.0000
vn -0.0000 0.0000 -1.0000
# 5 vertex normals

vt 0.0625 0.5625 0.0000
vt 0.0938 0.5625 0.0000
vt 0.0938 0.5938 0.0000
vt 0.0625 0.5938 0.0000
vt 0.0313 0.2813 0.0000
vt 0.0313 0.2826 0.0000
vt 0.0469 0.2813 0.0000
vt 0.0469 0.2826 0.0000
# 8 texture coords

g SolderSpot007
f 153/238/83 154/239/83 155/240/83 
f 155/240/83 156/241/83 153/238/83 
f 157/242/84 158/242/84 154/243/84 
f 154/243/84 153/243/84 157/242/84 
f 158/242/85 159/242/85 155/243/85 
f 155/243/85 154/243/85 158/242/85 
f 159/244/86 160/244/86 156/245/86 
f 156/245/86 155/245/86 159/244/86 
f 160/244/87 157/244/87 153/245/87 
f 153/245/87 156/245/87 160/244/87 
# 10 faces

