# 3ds Max Wavefront OBJ Exporter v0.97b - (c)2007 guruware
# File Created: 13.08.2014 00:18:57

#
# object Active_Centre
#

v  -1.0002 2.5100 -1.0000
v  -1.0002 2.5100 1.0000
v  1.0002 2.5100 -1.0000
v  1.0002 2.5100 1.0000
# 4 vertices

vn 0.0000 1.0000 -0.0000
# 1 vertex normals

vt 0.0000 0.1250 0.0000
vt 0.0000 0.0000 0.0000
vt 0.1250 0.1250 0.0000
vt 0.1250 0.0000 0.0000
# 4 texture coords

g Active_Centre
f 1/1/1 2/2/1 3/3/1 
f 4/4/1 3/3/1 2/2/1 
# 2 faces

#
# object Active_South
#

v  0.9999 2.5100 8.0000
v  0.9998 2.5098 1.0000
v  -1.0002 2.5098 1.0000
v  -1.0002 2.5098 8.0000
# 4 vertices

vn -0.0001 1.0000 -0.0000
vn -0.0000 1.0000 -0.0000
vn -0.0001 1.0000 0.0000
# 3 vertex normals

vt 0.1250 0.0000 0.0000
vt 0.1250 0.5000 0.0000
vt 0.0000 0.5000 0.0000
vt 0.0000 0.0000 0.0000
# 4 texture coords

g Active_South
f 5/5/2 6/6/3 7/7/3 
f 7/7/3 8/8/4 5/5/2 
# 2 faces

#
# object Active_North
#

v  -1.0002 2.5100 -8.0000
v  -1.0002 2.5098 -1.0000
v  0.9998 2.5098 -1.0000
v  0.9999 2.5098 -8.0000
# 4 vertices

vn 0.0001 1.0000 0.0000
vn -0.0000 1.0000 0.0000
vn 0.0000 1.0000 0.0000
# 3 vertex normals

vt 0.1250 0.0000 0.0000
vt 0.1250 0.5000 0.0000
vt 0.0000 0.5000 0.0000
vt 0.0000 0.0000 0.0000
# 4 texture coords

g Active_North
f 9/9/5 10/10/6 11/11/7 
f 11/11/7 12/12/5 9/9/5 
# 2 faces

#
# object Active_East
#

v  7.9999 2.5100 -1.0000
v  0.9999 2.5098 -1.0000
v  0.9999 2.5098 1.0000
v  7.9999 2.5098 1.0000
# 4 vertices

vn -0.0000 1.0000 0.0001
vn -0.0000 1.0000 0.0000
vn 0.0000 1.0000 0.0001
# 3 vertex normals

vt 0.1250 0.0000 0.0000
vt 0.1250 0.5000 0.0000
vt 0.0000 0.5000 0.0000
vt 0.0000 0.0000 0.0000
# 4 texture coords

g Active_East
f 13/13/8 14/14/9 15/15/9 
f 15/15/9 16/16/10 13/13/8 
# 2 faces

#
# object Active_West
#

v  -8.0002 2.5101 1.0000
v  -1.0002 2.5099 1.0000
v  -1.0002 2.5099 -1.0000
v  -8.0002 2.5099 -1.0000
# 4 vertices

vn 0.0000 1.0000 -0.0001
vn 0.0000 1.0000 -0.0000
# 2 vertex normals

vt 0.1250 0.0000 0.0000
vt 0.1250 0.5000 0.0000
vt 0.0000 0.5000 0.0000
vt 0.0000 0.0000 0.0000
# 4 texture coords

g Active_West
f 17/17/11 18/18/12 19/19/12 
f 19/19/12 20/20/11 17/17/11 
# 2 faces

#
# object plate
#

v  -0.9998 2.5000 -8.0000
v  -0.9998 3.0000 -8.0000
v  -0.9998 3.0000 -1.0000
v  -0.9998 2.5000 -1.0000
v  1.0002 2.5000 -8.0000
v  1.0002 2.5000 -1.0000
v  1.0002 3.0000 -1.0000
v  1.0002 3.0000 -8.0000
v  1.0002 2.5000 8.0000
v  1.0002 3.0000 8.0000
v  1.0002 3.0000 1.0000
v  1.0002 2.5000 1.0000
v  -0.9998 2.5000 8.0000
v  -0.9998 2.5000 1.0000
v  -0.9998 3.0000 1.0000
v  -0.9998 3.0000 8.0000
v  -7.9999 2.5000 1.0000
v  -7.9999 3.0000 1.0000
v  -7.9999 3.0000 -1.0000
v  -7.9999 2.5000 -1.0000
v  8.0002 3.0000 1.0000
v  8.0002 2.5000 1.0000
v  8.0002 3.0000 -1.0000
v  8.0002 2.5000 -1.0000
v  -8.0002 3.0000 2.0000
v  -2.0000 3.0000 2.0000
v  -2.0002 3.0000 8.0000
v  8.0002 3.0000 -2.0000
v  2.0000 3.0000 -2.0000
v  1.9999 3.0000 -8.0000
v  -2.0000 3.0000 -2.0000
v  -8.0002 3.0000 -2.0000
v  -2.0002 3.0000 -8.0000
v  1.9999 3.0000 8.0000
v  2.0000 3.0000 2.0000
v  8.0002 3.0000 2.0000
v  -2.0000 0.0000 -8.0000
v  -2.0000 0.0000 -2.0000
v  -7.9999 0.0000 -2.0000
v  -2.0000 0.0000 2.0000
v  -2.0000 0.0000 8.0000
v  -7.9999 0.0000 2.0000
v  2.0000 0.0000 2.0000
v  8.0002 0.0000 2.0000
v  2.0000 0.0000 8.0000
v  2.0000 0.0000 -2.0000
v  2.0000 0.0000 -8.0000
v  1.9999 2.0000 -8.0000
v  8.0001 2.0000 -2.0000
v  8.0002 0.0000 -2.0000
# 50 vertices

vn 1.0000 0.0000 -0.0000
vn -1.0000 0.0000 -0.0000
vn 0.0000 0.0000 -1.0000
vn 0.0000 0.0000 1.0000
vn 0.0000 1.0000 -0.0000
vn -0.0000 1.0000 0.0000
vn 0.0000 1.0000 0.0000
vn -0.0000 1.0000 -0.0000
vn -1.0000 -0.0001 0.0000
vn -1.0000 -0.0000 -0.0000
vn 0.0000 -0.0000 -1.0000
vn -1.0000 -0.0001 -0.0000
vn 0.0000 -0.0000 1.0000
vn -0.0000 -0.0000 1.0000
vn 1.0000 -0.0000 0.0000
vn 1.0000 0.0000 0.0000
vn 1.0000 0.0001 -0.0000
vn 0.0077 0.0000 1.0000
vn -0.0000 -0.0000 -1.0000
vn -0.0077 -0.0000 -1.0000
vn -1.0000 0.0000 -0.0003
vn -1.0000 -0.0001 -0.0003
vn -1.0000 0.0000 0.0003
vn -1.0000 -0.0001 0.0003
vn 0.0000 -1.0000 -0.0000
# 25 vertex normals

vt 0.6875 0.0000 0.0000
vt 0.7188 0.0000 0.0000
vt 0.7188 0.2188 0.0000
vt 0.6875 0.2188 0.0000
vt 0.7813 0.5000 0.0000
vt 0.7813 0.2813 0.0000
vt 0.8125 0.2813 0.0000
vt 0.8125 0.5000 0.0000
vt 0.7813 0.0000 0.0000
vt 0.8125 0.0000 0.0000
vt 0.8125 0.2188 0.0000
vt 0.7813 0.2188 0.0000
vt 0.6875 0.5000 0.0000
vt 0.6875 0.2813 0.0000
vt 0.7188 0.2813 0.0000
vt 0.7188 0.5000 0.0000
vt 0.7813 0.1875 0.0000
vt 1.0000 0.1875 0.0000
vt 1.0000 0.2188 0.0000
vt 0.5000 0.3125 0.0000
vt 0.5000 0.2813 0.0000
vt 0.7188 0.3125 0.0000
vt 0.5000 0.2188 0.0000
vt 0.5000 0.1875 0.0000
vt 0.7188 0.1875 0.0000
vt 1.0000 0.3125 0.0000
vt 0.7813 0.3125 0.0000
vt 1.0000 0.2813 0.0000
vt 0.6875 0.1875 0.0000
vt 0.8125 0.3125 0.0000
vt 0.6875 0.3125 0.0000
vt 0.7188 -0.0000 0.0000
vt 0.7813 -0.0000 0.0000
vt 0.8125 0.1875 0.0000
vt 0.6875 0.5938 0.0000
vt 0.5000 0.5938 0.0000
vt 0.5000 0.5000 0.0000
vt 0.8125 0.8750 0.0000
vt 1.0000 0.8750 0.0000
vt 1.0000 0.9688 0.0000
vt 0.8125 0.9688 0.0000
vt 0.8125 0.5938 0.0000
vt 1.0000 0.5000 0.0000
vt 1.0000 0.5938 0.0000
vt 0.5000 0.7188 0.0000
vt 0.5000 0.6250 0.0000
vt 0.6875 0.6250 0.0000
vt 0.6875 0.7188 0.0000
vt 1.0000 0.7188 0.0000
vt 0.8125 0.7188 0.0000
vt 0.8125 0.6250 0.0000
vt 1.0000 0.6250 0.0000
vt 0.5000 0.8438 0.0000
vt 0.5000 0.7500 0.0000
vt 0.6875 0.7500 0.0000
vt 0.6875 0.8438 0.0000
vt 0.8125 0.8438 0.0000
vt 0.8125 0.7500 0.0000
vt 1.0000 0.7500 0.0000
vt 1.0000 0.8125 0.0000
vt 1.0000 0.8438 0.0000
vt 0.5000 0.9688 0.0000
vt 0.5000 0.9375 0.0000
vt 0.5000 0.8750 0.0000
vt 0.6875 0.8750 0.0000
vt 0.6875 0.9688 0.0000
vt 0.6875 0.8125 0.0000
vt 0.7188 0.8438 0.0000
vt 0.7188 0.8290 0.0000
vt 0.7813 0.8290 0.0000
vt 0.7813 0.8438 0.0000
vt 0.7813 0.7188 0.0000
vt 0.7813 0.7040 0.0000
vt 0.7188 0.7040 0.0000
vt 0.7188 0.7188 0.0000
vt 0.7813 0.5938 0.0000
vt 0.7813 0.5790 0.0000
vt 0.7188 0.5790 0.0000
vt 0.7188 0.5938 0.0000
vt 0.7813 0.9688 0.0000
vt 0.7813 0.9540 0.0000
vt 0.7188 0.9540 0.0000
vt 0.7188 0.9688 0.0000
vt 0.6875 0.9375 0.0000
vt 0.3125 0.1875 0.0000
vt 0.3125 -0.0000 0.0000
vt 0.1875 -0.0000 0.0000
vt 0.1875 0.1875 0.0000
vt 0.0000 0.1875 0.0000
vt 0.0000 0.3125 0.0000
vt 0.1875 0.3125 0.0000
vt 0.1875 0.5000 0.0000
vt 0.3125 0.5000 0.0000
vt 0.3125 0.3125 0.0000
# 94 texture coords

g plate
f 21/21/13 22/22/13 23/23/13 
f 23/23/13 24/24/13 21/21/13 
f 25/25/14 26/26/14 27/27/14 
f 27/27/14 28/28/14 25/25/14 
f 29/29/14 30/30/14 31/31/14 
f 31/31/14 32/32/14 29/29/14 
f 33/33/13 34/34/13 35/35/13 
f 35/35/13 36/36/13 33/33/13 
f 34/37/15 37/38/15 38/39/15 
f 38/39/15 35/32/15 34/37/15 
f 39/40/16 40/41/16 24/35/16 
f 24/35/16 23/42/16 39/40/16 
f 41/43/15 42/44/15 32/45/15 
f 32/45/15 31/23/15 41/43/15 
f 43/46/16 27/47/16 26/26/16 
f 26/26/16 44/48/16 43/46/16 
f 38/43/17 45/44/17 46/49/17 
f 35/23/17 38/43/17 46/49/17 
f 46/49/18 47/21/18 36/22/18 
f 35/23/17 46/49/17 36/22/17 
f 43/48/17 48/46/17 49/50/17 
f 49/50/17 50/28/17 28/25/17 
f 49/50/17 28/25/17 27/26/17 
f 43/48/17 49/50/17 27/26/17 
f 51/51/17 52/40/17 39/41/17 
f 51/51/17 39/41/17 23/35/17 
f 53/33/18 51/51/18 23/35/18 
f 22/36/17 53/33/17 23/35/17 
f 26/26/17 25/25/17 21/36/17 
f 26/26/17 21/36/17 24/35/17 
f 24/35/17 40/41/17 37/43/17 
f 24/35/17 37/43/17 34/23/17 
f 34/23/17 33/52/17 29/53/17 
f 34/23/17 29/53/17 32/32/17 
f 24/35/17 34/23/17 32/32/17 
f 26/26/17 24/35/17 32/32/17 
f 26/26/17 32/32/17 42/39/17 
f 26/26/17 42/39/17 44/48/17 
f 30/29/19 54/30/19 55/54/19 
f 31/32/20 30/29/20 55/54/20 
f 41/39/17 31/32/17 55/54/17 
f 56/38/17 41/39/17 55/54/17 
f 51/55/21 53/56/21 57/57/21 
f 57/57/22 58/33/22 51/55/22 
f 58/58/23 59/59/23 52/60/23 
f 52/60/23 51/61/23 58/58/23 
f 46/62/22 60/28/22 61/63/22 
f 61/63/24 47/64/24 46/62/24 
f 45/65/25 62/66/25 60/67/25 
f 60/67/25 46/68/25 45/65/25 
f 56/69/26 55/70/26 63/71/26 
f 63/71/26 64/72/26 56/69/26 
f 54/73/13 65/74/13 63/75/13 
f 63/75/27 55/76/27 54/73/27 
f 49/77/28 66/78/28 67/79/28 
f 49/77/13 67/79/13 68/80/13 
f 50/81/29 49/77/29 68/80/29 
f 48/82/30 69/83/30 70/84/30 
f 48/82/31 70/84/31 66/85/31 
f 49/86/31 48/82/31 66/85/31 
f 70/75/32 69/87/32 48/76/32 
f 48/76/13 43/88/13 44/89/13 
f 42/90/13 41/91/13 56/77/13 
f 42/90/13 56/77/13 64/78/13 
f 44/89/13 42/90/13 64/78/13 
f 48/76/13 44/89/13 64/78/13 
f 70/75/13 48/76/13 64/78/13 
f 65/71/16 54/70/16 30/92/16 
f 65/71/16 30/92/16 29/93/16 
f 33/94/16 36/95/16 47/68/16 
f 33/94/16 47/68/16 61/67/16 
f 29/93/16 33/94/16 61/67/16 
f 65/71/16 29/93/16 61/67/16 
f 45/62/33 38/96/33 37/97/33 
f 62/28/34 45/62/34 37/97/34 
f 40/98/35 39/99/35 52/55/35 
f 40/98/36 52/55/36 59/33/36 
f 37/97/14 40/98/14 59/33/14 
f 62/28/14 37/97/14 59/33/14 
f 57/58/15 53/61/15 22/100/15 
f 57/58/15 22/100/15 21/101/15 
f 57/58/15 21/101/15 25/102/15 
f 25/102/15 28/103/15 50/86/15 
f 25/102/23 50/86/23 68/104/23 
f 57/58/23 25/102/23 68/104/23 
f 57/58/15 68/104/15 67/85/15 
f 63/105/37 65/106/37 61/107/37 
f 63/105/37 61/107/37 60/108/37 
f 60/108/37 62/109/37 59/110/37 
f 60/108/37 59/110/37 58/111/37 
f 58/111/37 57/112/37 67/113/37 
f 58/111/37 67/113/37 66/114/37 
f 60/108/37 58/111/37 66/114/37 
f 63/105/37 60/108/37 66/114/37 
f 64/44/37 63/105/37 66/114/37 
f 64/44/37 66/114/37 70/40/37 
# 96 faces

