# 3ds Max Wavefront OBJ Exporter v0.97b - (c)2007 guruware
# File Created: 23.08.2014 00:31:09

#
# object signalOut
#

v  -1.0000 2.5000 -5.0000
v  0.0000 2.5000 -7.0000
v  1.0000 2.5000 -5.0000
v  -1.0000 3.0000 -5.0000
v  1.0000 3.0000 -5.0000
v  0.0000 3.0000 -7.0000
# 6 vertices

vn 0.0000 -1.0000 -0.0000
vn 0.0000 1.0000 -0.0000
vn 0.0000 0.0000 1.0000
vn 0.8944 0.0000 -0.4472
vn -0.8944 0.0000 -0.4472
# 5 vertex normals

vt 0.0000 0.0000 0.0000
vt 0.5000 -0.0000 0.0000
vt 1.0000 0.0000 0.0000
vt 0.7500 0.0625 0.0000
vt 0.8750 0.0625 0.0000
vt 0.8125 0.1875 0.0000
vt 0.7500 0.0000 0.0000
vt 0.8750 0.0000 0.0000
vt 0.6875 0.0625 0.0000
vt 0.7500 0.1875 0.0000
vt 0.6875 0.1875 0.0000
vt 0.9375 0.0625 0.0000
vt 0.9375 0.1875 0.0000
vt 0.8750 0.1875 0.0000
# 14 texture coords

g signalOut
f 1/1/1 2/2/1 3/3/1 
f 4/4/2 5/5/2 6/6/2 
f 1/7/3 3/8/3 5/5/3 
f 5/5/3 4/4/3 1/7/3 
f 3/9/4 2/4/4 6/10/4 
f 6/10/4 5/11/4 3/9/4 
f 2/5/5 1/12/5 4/13/5 
f 4/13/5 6/14/5 2/5/5 
# 8 faces

#
# object signalIn
#

v  1.0000 2.5000 -7.0000
v  0.0000 2.5000 -5.0000
v  -1.0000 2.5000 -7.0000
v  1.0000 3.0000 -7.0000
v  -1.0000 3.0000 -7.0000
v  0.0000 3.0000 -5.0000
# 6 vertices

vn 0.0000 -1.0000 -0.0000
vn 0.0000 1.0000 -0.0000
vn -0.0000 0.0000 -1.0000
vn -0.8944 0.0000 0.4472
vn 0.8944 0.0000 0.4472
# 5 vertex normals

vt 0.0000 0.0000 0.0000
vt 0.5000 -0.0000 0.0000
vt 1.0000 0.0000 0.0000
vt 0.7500 0.0625 0.0000
vt 0.8750 0.0625 0.0000
vt 0.8125 0.1875 0.0000
vt 0.7500 0.0000 0.0000
vt 0.8750 0.0000 0.0000
vt 0.6875 0.0625 0.0000
vt 0.7500 0.1875 0.0000
vt 0.6875 0.1875 0.0000
vt 0.9375 0.0625 0.0000
vt 0.9375 0.1875 0.0000
vt 0.8750 0.1875 0.0000
# 14 texture coords

g signalIn
f 7/15/6 8/16/6 9/17/6 
f 10/18/7 11/19/7 12/20/7 
f 7/21/8 9/22/8 11/19/8 
f 11/19/8 10/18/8 7/21/8 
f 9/23/9 8/18/9 12/24/9 
f 12/24/9 11/25/9 9/23/9 
f 8/19/10 7/26/10 10/27/10 
f 10/27/10 12/28/10 8/19/10 
# 8 faces

