# 3ds Max Wavefront OBJ Exporter v0.97b - (c)2007 guruware
# File Created: 12.08.2014 01:23:38

#
# object Plate
#

v  -8.0000 0.0000 -2.0000
v  -2.0000 0.0000 -8.0000
v  2.0000 0.0000 -8.0000
v  8.0000 0.0000 -2.0000
v  -8.0000 0.0000 2.0000
v  8.0000 0.0000 2.0000
v  2.0000 0.0000 8.0000
v  -2.0000 0.0000 8.0000
v  1.0000 3.0000 1.0000
v  1.0000 2.5000 1.0000
v  1.0000 2.5000 8.0000
v  1.0000 3.0000 8.0000
v  -8.0000 3.0000 1.0000
v  -8.0000 3.0000 2.0000
v  -7.0000 3.0000 2.0000
v  -1.0000 3.0000 1.0000
v  -2.0000 3.0000 7.0000
v  -1.9586 3.0000 8.0000
v  -1.0000 3.0000 8.0000
v  -1.0000 2.5000 8.0000
v  -1.0000 2.5000 1.0000
v  -1.0000 3.0000 -1.0000
v  -1.0000 2.5000 -1.0000
v  -1.0000 2.5000 -8.0000
v  -1.0000 3.0000 -8.0000
v  1.0000 3.0000 -1.0000
v  1.0000 3.0000 -8.0000
v  1.0000 2.5000 -8.0000
v  1.0000 2.5000 -1.0000
v  8.0000 3.0000 -1.0000
v  8.0000 2.5000 -1.0000
v  8.0000 3.0000 1.0000
v  8.0000 2.5000 1.0000
v  -8.0000 3.0000 -1.0000
v  -8.0000 2.5000 -1.0000
v  -8.0000 2.5000 1.0000
v  8.0000 3.0000 -2.0000
v  8.0000 3.0000 2.0000
v  8.0000 2.0000 2.0000
v  8.0000 2.0000 -2.0000
v  2.0000 3.0000 8.0000
v  -2.0000 2.0000 8.0000
v  2.0000 2.0000 8.0000
v  -8.0000 3.0000 -2.0000
v  -8.0000 2.0000 -2.0000
v  -8.0000 2.0000 2.0000
v  -2.0000 3.0000 -8.0000
v  2.0000 3.0000 -8.0000
v  2.0000 2.0000 -8.0000
v  -2.0000 2.0000 -8.0000
v  7.0000 3.0000 2.0000
v  2.0000 3.0000 7.0000
v  7.0000 3.0000 -2.0000
v  2.0000 3.0000 -7.0000
v  -7.0000 3.0000 -2.0000
v  -2.0000 3.0000 -7.0000
# 56 vertices

vn 0.0000 -1.0000 -0.0000
vn -1.0000 0.0000 -0.0000
vn 0.0000 1.0000 -0.0000
vn 1.0000 0.0000 -0.0000
vn 0.0000 0.0000 1.0000
vn 0.0000 0.0000 -1.0000
vn -0.5774 0.5774 0.5774
vn -0.9983 0.0413 0.0413
vn -0.7071 0.0000 0.7071
vn 0.5774 0.5774 0.5774
vn 0.7071 0.0000 0.7071
vn 0.5774 0.5774 -0.5774
vn 0.7071 0.0000 -0.7071
vn -0.7071 0.0000 -0.7071
vn -0.5774 0.5774 -0.5774
# 15 vertex normals

vt 0.5000 0.1875 0.0000
vt 0.6875 0.0000 0.0000
vt 0.8125 0.0000 0.0000
vt 1.0000 0.1875 0.0000
vt 0.5000 0.3125 0.0000
vt 1.0000 0.3125 0.0000
vt 0.8125 0.5000 0.0000
vt 0.6875 0.5000 0.0000
vt 0.3125 0.2188 0.0000
vt 0.2813 0.2188 0.0000
vt 0.2813 -0.0000 0.0000
vt 0.3125 -0.0000 0.0000
vt 0.0000 0.2188 0.0000
vt 0.0000 0.1875 0.0000
vt 0.0313 0.1875 0.0000
vt 0.2188 0.2188 0.0000
vt 0.1875 0.0313 0.0000
vt 0.1875 0.0000 0.0000
vt 0.2188 0.0000 0.0000
vt 0.2188 0.2813 0.0000
vt 0.2188 0.5000 0.0000
vt 0.1875 0.5000 0.0000
vt 0.1875 0.2813 0.0000
vt 0.1875 0.2188 0.0000
vt 0.1875 -0.0000 0.0000
vt 0.2188 -0.0000 0.0000
vt 0.3125 0.2813 0.0000
vt 0.3125 0.5000 0.0000
vt 0.2813 0.5000 0.0000
vt 0.2813 0.2813 0.0000
vt 0.2813 0.3125 0.0000
vt 0.5000 0.2813 0.0000
vt 0.2188 0.1875 0.0000
vt -0.0000 0.2188 0.0000
vt -0.0000 0.1875 0.0000
vt 0.2188 0.3125 0.0000
vt 0.0000 0.3125 0.0000
vt 0.0000 0.2813 0.0000
vt 0.5000 0.2188 0.0000
vt 0.2813 0.1875 0.0000
vt 0.2813 0.0000 0.0000
vt -0.0000 0.2813 0.0000
vt 0.8125 0.5938 0.0000
vt 0.7813 0.5938 0.0000
vt 0.7813 0.5790 0.0000
vt 0.7188 0.5938 0.0000
vt 0.6875 0.5938 0.0000
vt 0.6875 0.5625 0.0000
vt 0.7188 0.5790 0.0000
vt 0.8125 0.5625 0.0000
vt 0.2188 0.5938 0.0000
vt 0.1875 0.5938 0.0000
vt 0.1875 0.5625 0.0000
vt 0.9688 0.8750 0.0000
vt 0.9375 0.9063 0.0000
vt 0.5625 0.9063 0.0000
vt 0.5313 0.8750 0.0000
vt 0.3125 0.5938 0.0000
vt 0.2813 0.5938 0.0000
vt 0.3125 0.5625 0.0000
vt 0.5625 0.8750 0.0000
vt 0.9375 0.8750 0.0000
vt 0.9375 0.9375 0.0000
vt 0.5625 0.9375 0.0000
vt 0.4688 0.1875 0.0000
vt 0.3125 0.0000 0.0000
vt 0.3125 0.0313 0.0000
vt 0.3125 0.4688 0.0000
vt 0.4688 0.3125 0.0000
vt 0.0313 0.3125 0.0000
vt 0.1875 0.4688 0.0000
# 71 texture coords

g Plate
f 1/1/1 2/2/1 3/3/1 
f 1/1/1 3/3/1 4/4/1 
f 5/5/1 1/1/1 4/4/1 
f 5/5/1 4/4/1 6/6/1 
f 6/6/1 7/7/1 8/8/1 
f 5/5/1 6/6/1 8/8/1 
f 9/9/2 10/10/2 11/11/2 
f 11/11/2 12/12/2 9/9/2 
f 13/13/3 14/14/3 15/15/3 
f 16/16/3 13/13/3 15/15/3 
f 16/16/3 15/15/3 17/17/3 
f 16/16/3 17/17/3 18/18/3 
f 16/16/3 18/18/3 19/19/3 
f 16/20/4 19/21/4 20/22/4 
f 20/22/4 21/23/4 16/20/4 
f 22/16/4 23/24/4 24/25/4 
f 24/25/4 25/26/4 22/16/4 
f 26/27/2 27/28/2 28/29/2 
f 28/29/2 29/30/2 26/27/2 
f 30/5/5 26/31/5 29/30/5 
f 29/30/5 31/32/5 30/5/5 
f 10/33/6 9/16/6 32/34/6 
f 32/34/6 33/35/6 10/33/6 
f 23/20/5 22/36/5 34/37/5 
f 34/37/5 35/38/5 23/20/5 
f 36/1/6 13/39/6 16/10/6 
f 16/10/6 21/40/6 36/1/6 
f 21/16/3 20/19/3 11/41/3 
f 21/16/3 11/41/3 10/10/3 
f 10/10/3 33/39/3 31/32/3 
f 10/10/3 31/32/3 29/30/3 
f 29/30/3 28/29/3 24/21/3 
f 29/30/3 24/21/3 23/20/3 
f 10/10/3 29/30/3 23/20/3 
f 21/16/3 10/10/3 23/20/3 
f 21/16/3 23/20/3 35/42/3 
f 21/16/3 35/42/3 36/34/3 
f 37/43/4 30/44/4 31/45/4 
f 32/46/4 38/47/4 39/48/4 
f 33/49/4 32/46/4 39/48/4 
f 33/49/4 39/48/4 6/8/4 
f 31/45/4 33/49/4 6/8/4 
f 37/43/4 31/45/4 6/8/4 
f 37/43/4 6/8/4 4/7/4 
f 40/50/4 37/43/4 4/7/4 
f 41/43/5 12/44/5 11/45/5 
f 19/46/5 18/47/5 42/48/5 
f 20/49/5 19/46/5 42/48/5 
f 20/49/5 42/48/5 8/8/5 
f 11/45/5 20/49/5 8/8/5 
f 41/43/5 11/45/5 8/8/5 
f 41/43/5 8/8/5 7/7/5 
f 43/50/4 41/43/5 7/7/5 
f 14/47/2 13/46/2 36/49/2 
f 34/44/2 44/43/2 45/50/2 
f 35/45/2 34/44/2 45/50/2 
f 35/45/2 45/50/2 1/7/2 
f 36/49/2 35/45/2 1/7/2 
f 14/47/2 36/49/2 1/7/2 
f 14/47/2 1/7/2 5/8/2 
f 46/48/4 14/47/2 5/8/2 
f 47/47/6 25/46/6 24/49/6 
f 27/44/6 48/43/6 49/50/6 
f 28/45/6 27/44/6 49/50/6 
f 28/45/6 49/50/6 3/7/6 
f 24/49/6 28/45/6 3/7/6 
f 47/47/6 24/49/6 3/7/6 
f 47/47/6 3/7/6 2/8/6 
f 50/48/4 47/47/6 2/8/6 
f 15/51/5 14/52/5 46/53/5 
f 42/54/7 17/55/7 15/56/7 
f 15/56/7 46/57/7 42/54/7 
f 18/58/8 17/59/8 42/60/8 
f 5/61/9 8/62/9 42/63/9 
f 42/63/9 46/64/9 5/61/9 
f 38/58/5 51/59/5 39/60/5 
f 41/52/4 43/53/4 52/51/4 
f 51/55/10 52/56/10 43/57/10 
f 43/57/10 39/54/10 51/55/10 
f 7/61/11 6/62/11 39/63/11 
f 39/63/11 43/64/11 7/61/11 
f 51/65/3 38/1/3 32/39/3 
f 51/65/3 32/39/3 9/10/3 
f 9/10/3 12/41/3 41/66/3 
f 9/10/3 41/66/3 52/67/3 
f 51/65/3 9/10/3 52/67/3 
f 37/52/6 40/53/6 53/51/6 
f 48/58/4 54/59/4 49/60/4 
f 54/55/12 53/56/12 40/57/12 
f 40/57/12 49/54/12 54/55/12 
f 54/68/3 48/28/3 27/29/3 
f 54/68/3 27/29/3 26/30/3 
f 26/30/3 30/32/3 37/5/3 
f 26/30/3 37/5/3 53/69/3 
f 54/68/3 26/30/3 53/69/3 
f 49/63/13 40/64/13 4/61/13 
f 4/61/13 3/62/13 49/63/13 
f 44/58/6 55/59/6 45/60/6 
f 47/52/2 50/53/2 56/51/2 
f 55/70/3 44/37/3 34/38/3 
f 55/70/3 34/38/3 22/20/3 
f 56/71/3 55/70/3 22/20/3 
f 56/71/3 22/20/3 25/21/3 
f 56/71/3 25/21/3 47/22/3 
f 1/62/14 45/63/14 50/64/14 
f 50/64/14 2/61/14 1/62/14 
f 55/55/15 56/56/15 50/57/15 
f 50/57/15 45/54/15 55/55/15 
# 108 faces

#
# object Active_Centre
#

v  -1.0002 2.5100 -1.0000
v  -1.0002 2.5100 1.0000
v  1.0002 2.5100 -1.0000
v  1.0002 2.5100 1.0000
# 4 vertices

vn 0.0000 1.0000 -0.0000
# 1 vertex normals

vt 0.0000 0.1250 0.0000
vt 0.0000 0.0000 0.0000
vt 0.1250 0.1250 0.0000
vt 0.1250 0.0000 0.0000
# 4 texture coords

g Active_Centre
f 57/72/16 58/73/16 59/74/16 
f 60/75/16 59/74/16 58/73/16 
# 2 faces

#
# object Active_South
#

v  0.9999 2.5100 8.0000
v  0.9998 2.5098 1.0000
v  -1.0002 2.5098 1.0000
v  -1.0002 2.5098 8.0000
# 4 vertices

vn -0.0001 1.0000 -0.0000
vn -0.0000 1.0000 -0.0000
vn -0.0001 1.0000 0.0000
# 3 vertex normals

vt 0.1250 0.0000 0.0000
vt 0.1250 0.5000 0.0000
vt 0.0000 0.5000 0.0000
vt 0.0000 0.0000 0.0000
# 4 texture coords

g Active_South
f 61/76/17 62/77/18 63/78/18 
f 63/78/18 64/79/19 61/76/17 
# 2 faces

#
# object Active_North
#

v  -1.0002 2.5100 -8.0000
v  -1.0002 2.5098 -1.0000
v  0.9998 2.5098 -1.0000
v  0.9999 2.5098 -8.0000
# 4 vertices

vn 0.0001 1.0000 0.0000
vn -0.0000 1.0000 0.0000
vn 0.0000 1.0000 0.0000
# 3 vertex normals

vt 0.1250 0.0000 0.0000
vt 0.1250 0.5000 0.0000
vt 0.0000 0.5000 0.0000
vt 0.0000 0.0000 0.0000
# 4 texture coords

g Active_North
f 65/80/20 66/81/21 67/82/22 
f 67/82/22 68/83/20 65/80/20 
# 2 faces

#
# object Active_East
#

v  7.9999 2.5100 -1.0000
v  0.9999 2.5098 -1.0000
v  0.9999 2.5098 1.0000
v  7.9999 2.5098 1.0000
# 4 vertices

vn -0.0000 1.0000 0.0001
vn -0.0000 1.0000 0.0000
vn 0.0000 1.0000 0.0001
# 3 vertex normals

vt 0.1250 0.0000 0.0000
vt 0.1250 0.5000 0.0000
vt 0.0000 0.5000 0.0000
vt 0.0000 0.0000 0.0000
# 4 texture coords

g Active_East
f 69/84/23 70/85/24 71/86/24 
f 71/86/24 72/87/25 69/84/23 
# 2 faces

#
# object Active_West
#

v  -8.0002 2.5101 1.0000
v  -1.0002 2.5099 1.0000
v  -1.0002 2.5099 -1.0000
v  -8.0002 2.5099 -1.0000
# 4 vertices

vn 0.0000 1.0000 -0.0001
vn 0.0000 1.0000 -0.0000
# 2 vertex normals

vt 0.1250 0.0000 0.0000
vt 0.1250 0.5000 0.0000
vt 0.0000 0.5000 0.0000
vt 0.0000 0.0000 0.0000
# 4 texture coords

g Active_West
f 73/88/26 74/89/27 75/90/27 
f 75/90/27 76/91/26 73/88/26 
# 2 faces

#
# object SolderSpot009
#

v  -2.0000 3.0500 4.0000
v  -2.0000 3.0500 5.0000
v  -1.0000 3.0500 5.0000
v  -1.0000 3.0500 4.0000
v  -2.0000 2.9500 4.0000
v  -2.0000 2.9500 5.0000
v  -1.0000 2.9500 5.0000
v  -1.0000 2.9500 4.0000
# 8 vertices

vn 0.0000 1.0000 -0.0000
vn -1.0000 0.0000 0.0000
vn 0.0000 0.0000 1.0000
vn 1.0000 0.0000 -0.0000
vn -0.0000 0.0000 -1.0000
# 5 vertex normals

vt 0.0625 0.5625 0.0000
vt 0.0938 0.5625 0.0000
vt 0.0938 0.5938 0.0000
vt 0.0625 0.5938 0.0000
vt 0.0313 0.2813 0.0000
vt 0.0313 0.2826 0.0000
vt 0.0469 0.2813 0.0000
vt 0.0469 0.2826 0.0000
# 8 texture coords

g SolderSpot009
f 77/92/28 78/93/28 79/94/28 
f 79/94/28 80/95/28 77/92/28 
f 81/96/29 82/96/29 78/97/29 
f 78/97/29 77/97/29 81/96/29 
f 82/96/30 83/96/30 79/97/30 
f 79/97/30 78/97/30 82/96/30 
f 83/98/31 84/98/31 80/99/31 
f 80/99/31 79/99/31 83/98/31 
f 84/98/32 81/98/32 77/99/32 
f 77/99/32 80/99/32 84/98/32 
# 10 faces

#
# object SolderSpot010
#

v  -3.0000 3.0500 3.0000
v  -3.0000 3.0500 4.0000
v  -2.0000 3.0500 4.0000
v  -2.0000 3.0500 3.0000
v  -3.0000 2.9500 3.0000
v  -3.0000 2.9500 4.0000
v  -2.0000 2.9500 4.0000
v  -2.0000 2.9500 3.0000
# 8 vertices

vn 0.0000 1.0000 -0.0000
vn -1.0000 0.0000 0.0000
vn 0.0000 0.0000 1.0000
vn 1.0000 0.0000 -0.0000
vn -0.0000 0.0000 -1.0000
# 5 vertex normals

vt 0.0625 0.5625 0.0000
vt 0.0938 0.5625 0.0000
vt 0.0938 0.5938 0.0000
vt 0.0625 0.5938 0.0000
vt 0.0313 0.2813 0.0000
vt 0.0313 0.2826 0.0000
vt 0.0469 0.2813 0.0000
vt 0.0469 0.2826 0.0000
# 8 texture coords

g SolderSpot010
f 85/100/33 86/101/33 87/102/33 
f 87/102/33 88/103/33 85/100/33 
f 89/104/34 90/104/34 86/105/34 
f 86/105/34 85/105/34 89/104/34 
f 90/104/35 91/104/35 87/105/35 
f 87/105/35 86/105/35 90/104/35 
f 91/106/36 92/106/36 88/107/36 
f 88/107/36 87/107/36 91/106/36 
f 92/106/37 89/106/37 85/107/37 
f 85/107/37 88/107/37 92/106/37 
# 10 faces

#
# object SolderSpot011
#

v  -4.0000 3.0500 2.0000
v  -4.0000 3.0500 3.0000
v  -3.0000 3.0500 3.0000
v  -3.0000 3.0500 2.0000
v  -4.0000 2.9500 2.0000
v  -4.0000 2.9500 3.0000
v  -3.0000 2.9500 3.0000
v  -3.0000 2.9500 2.0000
# 8 vertices

vn 0.0000 1.0000 -0.0000
vn -1.0000 0.0000 0.0000
vn 0.0000 0.0000 1.0000
vn 1.0000 0.0000 -0.0000
vn -0.0000 0.0000 -1.0000
# 5 vertex normals

vt 0.0625 0.5625 0.0000
vt 0.0938 0.5625 0.0000
vt 0.0938 0.5938 0.0000
vt 0.0625 0.5938 0.0000
vt 0.0313 0.2813 0.0000
vt 0.0313 0.2826 0.0000
vt 0.0469 0.2813 0.0000
vt 0.0469 0.2826 0.0000
# 8 texture coords

g SolderSpot011
f 93/108/38 94/109/38 95/110/38 
f 95/110/38 96/111/38 93/108/38 
f 97/112/39 98/112/39 94/113/39 
f 94/113/39 93/113/39 97/112/39 
f 98/112/40 99/112/40 95/113/40 
f 95/113/40 94/113/40 98/112/40 
f 99/114/41 100/114/41 96/115/41 
f 96/115/41 95/115/41 99/114/41 
f 100/114/42 97/114/42 93/115/42 
f 93/115/42 96/115/42 100/114/42 
# 10 faces

#
# object SolderSpot012
#

v  -5.0000 3.0500 1.0000
v  -5.0000 3.0500 2.0000
v  -4.0000 3.0500 2.0000
v  -4.0000 3.0500 1.0000
v  -5.0000 2.9500 1.0000
v  -5.0000 2.9500 2.0000
v  -4.0000 2.9500 2.0000
v  -4.0000 2.9500 1.0000
# 8 vertices

vn 0.0000 1.0000 -0.0000
vn -1.0000 0.0000 0.0000
vn 0.0000 0.0000 1.0000
vn 1.0000 0.0000 -0.0000
vn -0.0000 0.0000 -1.0000
# 5 vertex normals

vt 0.0625 0.5625 0.0000
vt 0.0938 0.5625 0.0000
vt 0.0938 0.5938 0.0000
vt 0.0625 0.5938 0.0000
vt 0.0313 0.2813 0.0000
vt 0.0313 0.2826 0.0000
vt 0.0469 0.2813 0.0000
vt 0.0469 0.2826 0.0000
# 8 texture coords

g SolderSpot012
f 101/116/43 102/117/43 103/118/43 
f 103/118/43 104/119/43 101/116/43 
f 105/120/44 106/120/44 102/121/44 
f 102/121/44 101/121/44 105/120/44 
f 106/120/45 107/120/45 103/121/45 
f 103/121/45 102/121/45 106/120/45 
f 107/122/46 108/122/46 104/123/46 
f 104/123/46 103/123/46 107/122/46 
f 108/122/47 105/122/47 101/123/47 
f 101/123/47 104/123/47 108/122/47 
# 10 faces

#
# object SolderSpot013
#

v  -5.0000 3.0500 -2.0000
v  -5.0000 3.0500 -1.0000
v  -4.0000 3.0500 -1.0000
v  -4.0000 3.0500 -2.0000
v  -5.0000 2.9500 -2.0000
v  -5.0000 2.9500 -1.0000
v  -4.0000 2.9500 -1.0000
v  -4.0000 2.9500 -2.0000
# 8 vertices

vn 0.0000 1.0000 -0.0000
vn -1.0000 0.0000 0.0000
vn 0.0000 0.0000 1.0000
vn 1.0000 0.0000 -0.0000
vn -0.0000 0.0000 -1.0000
# 5 vertex normals

vt 0.0625 0.5625 0.0000
vt 0.0938 0.5625 0.0000
vt 0.0938 0.5938 0.0000
vt 0.0625 0.5938 0.0000
vt 0.0313 0.2813 0.0000
vt 0.0313 0.2826 0.0000
vt 0.0469 0.2813 0.0000
vt 0.0469 0.2826 0.0000
# 8 texture coords

g SolderSpot013
f 109/124/48 110/125/48 111/126/48 
f 111/126/48 112/127/48 109/124/48 
f 113/128/49 114/128/49 110/129/49 
f 110/129/49 109/129/49 113/128/49 
f 114/128/50 115/128/50 111/129/50 
f 111/129/50 110/129/50 114/128/50 
f 115/130/51 116/130/51 112/131/51 
f 112/131/51 111/131/51 115/130/51 
f 116/130/52 113/130/52 109/131/52 
f 109/131/52 112/131/52 116/130/52 
# 10 faces

#
# object SolderSpot014
#

v  -4.0000 3.0500 -3.0000
v  -4.0000 3.0500 -2.0000
v  -3.0000 3.0500 -2.0000
v  -3.0000 3.0500 -3.0000
v  -4.0000 2.9500 -3.0000
v  -4.0000 2.9500 -2.0000
v  -3.0000 2.9500 -2.0000
v  -3.0000 2.9500 -3.0000
# 8 vertices

vn 0.0000 1.0000 -0.0000
vn -1.0000 0.0000 0.0000
vn 0.0000 0.0000 1.0000
vn 1.0000 0.0000 -0.0000
vn -0.0000 0.0000 -1.0000
# 5 vertex normals

vt 0.0625 0.5625 0.0000
vt 0.0938 0.5625 0.0000
vt 0.0938 0.5938 0.0000
vt 0.0625 0.5938 0.0000
vt 0.0313 0.2813 0.0000
vt 0.0313 0.2826 0.0000
vt 0.0469 0.2813 0.0000
vt 0.0469 0.2826 0.0000
# 8 texture coords

g SolderSpot014
f 117/132/53 118/133/53 119/134/53 
f 119/134/53 120/135/53 117/132/53 
f 121/136/54 122/136/54 118/137/54 
f 118/137/54 117/137/54 121/136/54 
f 122/136/55 123/136/55 119/137/55 
f 119/137/55 118/137/55 122/136/55 
f 123/138/56 124/138/56 120/139/56 
f 120/139/56 119/139/56 123/138/56 
f 124/138/57 121/138/57 117/139/57 
f 117/139/57 120/139/57 124/138/57 
# 10 faces

#
# object SolderSpot015
#

v  -3.0000 3.0500 -4.0000
v  -3.0000 3.0500 -3.0000
v  -2.0000 3.0500 -3.0000
v  -2.0000 3.0500 -4.0000
v  -3.0000 2.9500 -4.0000
v  -3.0000 2.9500 -3.0000
v  -2.0000 2.9500 -3.0000
v  -2.0000 2.9500 -4.0000
# 8 vertices

vn 0.0000 1.0000 -0.0000
vn -1.0000 0.0000 0.0000
vn 0.0000 0.0000 1.0000
vn 1.0000 0.0000 -0.0000
vn -0.0000 0.0000 -1.0000
# 5 vertex normals

vt 0.0625 0.5625 0.0000
vt 0.0938 0.5625 0.0000
vt 0.0938 0.5938 0.0000
vt 0.0625 0.5938 0.0000
vt 0.0313 0.2813 0.0000
vt 0.0313 0.2826 0.0000
vt 0.0469 0.2813 0.0000
vt 0.0469 0.2826 0.0000
# 8 texture coords

g SolderSpot015
f 125/140/58 126/141/58 127/142/58 
f 127/142/58 128/143/58 125/140/58 
f 129/144/59 130/144/59 126/145/59 
f 126/145/59 125/145/59 129/144/59 
f 130/144/60 131/144/60 127/145/60 
f 127/145/60 126/145/60 130/144/60 
f 131/146/61 132/146/61 128/147/61 
f 128/147/61 127/147/61 131/146/61 
f 132/146/62 129/146/62 125/147/62 
f 125/147/62 128/147/62 132/146/62 
# 10 faces

#
# object SolderSpot016
#

v  -2.0000 3.0500 -5.0000
v  -2.0000 3.0500 -4.0000
v  -1.0000 3.0500 -4.0000
v  -1.0000 3.0500 -5.0000
v  -2.0000 2.9500 -5.0000
v  -2.0000 2.9500 -4.0000
v  -1.0000 2.9500 -4.0000
v  -1.0000 2.9500 -5.0000
# 8 vertices

vn 0.0000 1.0000 -0.0000
vn -1.0000 0.0000 0.0000
vn 0.0000 0.0000 1.0000
vn 1.0000 0.0000 -0.0000
vn -0.0000 0.0000 -1.0000
# 5 vertex normals

vt 0.0625 0.5625 0.0000
vt 0.0938 0.5625 0.0000
vt 0.0938 0.5938 0.0000
vt 0.0625 0.5938 0.0000
vt 0.0313 0.2813 0.0000
vt 0.0313 0.2826 0.0000
vt 0.0469 0.2813 0.0000
vt 0.0469 0.2826 0.0000
# 8 texture coords

g SolderSpot016
f 133/148/63 134/149/63 135/150/63 
f 135/150/63 136/151/63 133/148/63 
f 137/152/64 138/152/64 134/153/64 
f 134/153/64 133/153/64 137/152/64 
f 138/152/65 139/152/65 135/153/65 
f 135/153/65 134/153/65 138/152/65 
f 139/154/66 140/154/66 136/155/66 
f 136/155/66 135/155/66 139/154/66 
f 140/154/67 137/154/67 133/155/67 
f 133/155/67 136/155/67 140/154/67 
# 10 faces

#
# object SolderSpot001
#

v  1.0000 3.0500 -5.0000
v  1.0000 3.0500 -4.0000
v  2.0000 3.0500 -4.0000
v  2.0000 3.0500 -5.0000
v  1.0000 2.9500 -5.0000
v  1.0000 2.9500 -4.0000
v  2.0000 2.9500 -4.0000
v  2.0000 2.9500 -5.0000
# 8 vertices

vn 0.0000 1.0000 -0.0000
vn -1.0000 0.0000 0.0000
vn 0.0000 0.0000 1.0000
vn 1.0000 0.0000 -0.0000
vn -0.0000 0.0000 -1.0000
# 5 vertex normals

vt 0.0625 0.5625 0.0000
vt 0.0938 0.5625 0.0000
vt 0.0938 0.5938 0.0000
vt 0.0625 0.5938 0.0000
vt 0.0313 0.2813 0.0000
vt 0.0313 0.2826 0.0000
vt 0.0469 0.2813 0.0000
vt 0.0469 0.2826 0.0000
# 8 texture coords

g SolderSpot001
f 141/156/68 142/157/68 143/158/68 
f 143/158/68 144/159/68 141/156/68 
f 145/160/69 146/160/69 142/161/69 
f 142/161/69 141/161/69 145/160/69 
f 146/160/70 147/160/70 143/161/70 
f 143/161/70 142/161/70 146/160/70 
f 147/162/71 148/162/71 144/163/71 
f 144/163/71 143/163/71 147/162/71 
f 148/162/72 145/162/72 141/163/72 
f 141/163/72 144/163/72 148/162/72 
# 10 faces

#
# object SolderSpot002
#

v  2.0000 3.0500 -4.0000
v  2.0000 3.0500 -3.0000
v  3.0000 3.0500 -3.0000
v  3.0000 3.0500 -4.0000
v  2.0000 2.9500 -4.0000
v  2.0000 2.9500 -3.0000
v  3.0000 2.9500 -3.0000
v  3.0000 2.9500 -4.0000
# 8 vertices

vn 0.0000 1.0000 -0.0000
vn -1.0000 0.0000 0.0000
vn 0.0000 0.0000 1.0000
vn 1.0000 0.0000 -0.0000
vn -0.0000 0.0000 -1.0000
# 5 vertex normals

vt 0.0625 0.5625 0.0000
vt 0.0938 0.5625 0.0000
vt 0.0938 0.5938 0.0000
vt 0.0625 0.5938 0.0000
vt 0.0313 0.2813 0.0000
vt 0.0313 0.2826 0.0000
vt 0.0469 0.2813 0.0000
vt 0.0469 0.2826 0.0000
# 8 texture coords

g SolderSpot002
f 149/164/73 150/165/73 151/166/73 
f 151/166/73 152/167/73 149/164/73 
f 153/168/74 154/168/74 150/169/74 
f 150/169/74 149/169/74 153/168/74 
f 154/168/75 155/168/75 151/169/75 
f 151/169/75 150/169/75 154/168/75 
f 155/170/76 156/170/76 152/171/76 
f 152/171/76 151/171/76 155/170/76 
f 156/170/77 153/170/77 149/171/77 
f 149/171/77 152/171/77 156/170/77 
# 10 faces

#
# object SolderSpot003
#

v  3.0000 3.0500 -3.0000
v  3.0000 3.0500 -2.0000
v  4.0000 3.0500 -2.0000
v  4.0000 3.0500 -3.0000
v  3.0000 2.9500 -3.0000
v  3.0000 2.9500 -2.0000
v  4.0000 2.9500 -2.0000
v  4.0000 2.9500 -3.0000
# 8 vertices

vn 0.0000 1.0000 -0.0000
vn -1.0000 0.0000 0.0000
vn 0.0000 0.0000 1.0000
vn 1.0000 0.0000 -0.0000
vn -0.0000 0.0000 -1.0000
# 5 vertex normals

vt 0.0625 0.5625 0.0000
vt 0.0938 0.5625 0.0000
vt 0.0938 0.5938 0.0000
vt 0.0625 0.5938 0.0000
vt 0.0313 0.2813 0.0000
vt 0.0313 0.2826 0.0000
vt 0.0469 0.2813 0.0000
vt 0.0469 0.2826 0.0000
# 8 texture coords

g SolderSpot003
f 157/172/78 158/173/78 159/174/78 
f 159/174/78 160/175/78 157/172/78 
f 161/176/79 162/176/79 158/177/79 
f 158/177/79 157/177/79 161/176/79 
f 162/176/80 163/176/80 159/177/80 
f 159/177/80 158/177/80 162/176/80 
f 163/178/81 164/178/81 160/179/81 
f 160/179/81 159/179/81 163/178/81 
f 164/178/82 161/178/82 157/179/82 
f 157/179/82 160/179/82 164/178/82 
# 10 faces

#
# object SolderSpot004
#

v  4.0000 3.0500 -2.0000
v  4.0000 3.0500 -1.0000
v  5.0000 3.0500 -1.0000
v  5.0000 3.0500 -2.0000
v  4.0000 2.9500 -2.0000
v  4.0000 2.9500 -1.0000
v  5.0000 2.9500 -1.0000
v  5.0000 2.9500 -2.0000
# 8 vertices

vn 0.0000 1.0000 -0.0000
vn -1.0000 0.0000 0.0000
vn 0.0000 0.0000 1.0000
vn 1.0000 0.0000 -0.0000
vn -0.0000 0.0000 -1.0000
# 5 vertex normals

vt 0.0625 0.5625 0.0000
vt 0.0938 0.5625 0.0000
vt 0.0938 0.5938 0.0000
vt 0.0625 0.5938 0.0000
vt 0.0313 0.2813 0.0000
vt 0.0313 0.2826 0.0000
vt 0.0469 0.2813 0.0000
vt 0.0469 0.2826 0.0000
# 8 texture coords

g SolderSpot004
f 165/180/83 166/181/83 167/182/83 
f 167/182/83 168/183/83 165/180/83 
f 169/184/84 170/184/84 166/185/84 
f 166/185/84 165/185/84 169/184/84 
f 170/184/85 171/184/85 167/185/85 
f 167/185/85 166/185/85 170/184/85 
f 171/186/86 172/186/86 168/187/86 
f 168/187/86 167/187/86 171/186/86 
f 172/186/87 169/186/87 165/187/87 
f 165/187/87 168/187/87 172/186/87 
# 10 faces

#
# object SolderSpot005
#

v  4.0000 3.0500 1.0000
v  4.0000 3.0500 2.0000
v  5.0000 3.0500 2.0000
v  5.0000 3.0500 1.0000
v  4.0000 2.9500 1.0000
v  4.0000 2.9500 2.0000
v  5.0000 2.9500 2.0000
v  5.0000 2.9500 1.0000
# 8 vertices

vn 0.0000 1.0000 -0.0000
vn -1.0000 0.0000 0.0000
vn 0.0000 0.0000 1.0000
vn 1.0000 0.0000 -0.0000
vn -0.0000 0.0000 -1.0000
# 5 vertex normals

vt 0.0625 0.5625 0.0000
vt 0.0938 0.5625 0.0000
vt 0.0938 0.5938 0.0000
vt 0.0625 0.5938 0.0000
vt 0.0313 0.2813 0.0000
vt 0.0313 0.2826 0.0000
vt 0.0469 0.2813 0.0000
vt 0.0469 0.2826 0.0000
# 8 texture coords

g SolderSpot005
f 173/188/88 174/189/88 175/190/88 
f 175/190/88 176/191/88 173/188/88 
f 177/192/89 178/192/89 174/193/89 
f 174/193/89 173/193/89 177/192/89 
f 178/192/90 179/192/90 175/193/90 
f 175/193/90 174/193/90 178/192/90 
f 179/194/91 180/194/91 176/195/91 
f 176/195/91 175/195/91 179/194/91 
f 180/194/92 177/194/92 173/195/92 
f 173/195/92 176/195/92 180/194/92 
# 10 faces

#
# object SolderSpot006
#

v  3.0000 3.0500 2.0000
v  3.0000 3.0500 3.0000
v  4.0000 3.0500 3.0000
v  4.0000 3.0500 2.0000
v  3.0000 2.9500 2.0000
v  3.0000 2.9500 3.0000
v  4.0000 2.9500 3.0000
v  4.0000 2.9500 2.0000
# 8 vertices

vn 0.0000 1.0000 -0.0000
vn -1.0000 0.0000 0.0000
vn 0.0000 0.0000 1.0000
vn 1.0000 0.0000 -0.0000
vn -0.0000 0.0000 -1.0000
# 5 vertex normals

vt 0.0625 0.5625 0.0000
vt 0.0938 0.5625 0.0000
vt 0.0938 0.5938 0.0000
vt 0.0625 0.5938 0.0000
vt 0.0313 0.2813 0.0000
vt 0.0313 0.2826 0.0000
vt 0.0469 0.2813 0.0000
vt 0.0469 0.2826 0.0000
# 8 texture coords

g SolderSpot006
f 181/196/93 182/197/93 183/198/93 
f 183/198/93 184/199/93 181/196/93 
f 185/200/94 186/200/94 182/201/94 
f 182/201/94 181/201/94 185/200/94 
f 186/200/95 187/200/95 183/201/95 
f 183/201/95 182/201/95 186/200/95 
f 187/202/96 188/202/96 184/203/96 
f 184/203/96 183/203/96 187/202/96 
f 188/202/97 185/202/97 181/203/97 
f 181/203/97 184/203/97 188/202/97 
# 10 faces

#
# object SolderSpot007
#

v  2.0000 3.0500 3.0000
v  2.0000 3.0500 4.0000
v  3.0000 3.0500 4.0000
v  3.0000 3.0500 3.0000
v  2.0000 2.9500 3.0000
v  2.0000 2.9500 4.0000
v  3.0000 2.9500 4.0000
v  3.0000 2.9500 3.0000
# 8 vertices

vn 0.0000 1.0000 -0.0000
vn -1.0000 0.0000 0.0000
vn 0.0000 0.0000 1.0000
vn 1.0000 0.0000 -0.0000
vn -0.0000 0.0000 -1.0000
# 5 vertex normals

vt 0.0625 0.5625 0.0000
vt 0.0938 0.5625 0.0000
vt 0.0938 0.5938 0.0000
vt 0.0625 0.5938 0.0000
vt 0.0313 0.2813 0.0000
vt 0.0313 0.2826 0.0000
vt 0.0469 0.2813 0.0000
vt 0.0469 0.2826 0.0000
# 8 texture coords

g SolderSpot007
f 189/204/98 190/205/98 191/206/98 
f 191/206/98 192/207/98 189/204/98 
f 193/208/99 194/208/99 190/209/99 
f 190/209/99 189/209/99 193/208/99 
f 194/208/100 195/208/100 191/209/100 
f 191/209/100 190/209/100 194/208/100 
f 195/210/101 196/210/101 192/211/101 
f 192/211/101 191/211/101 195/210/101 
f 196/210/102 193/210/102 189/211/102 
f 189/211/102 192/211/102 196/210/102 
# 10 faces

#
# object SolderSpot008
#

v  1.0000 3.0500 4.0000
v  1.0000 3.0500 5.0000
v  2.0000 3.0500 5.0000
v  2.0000 3.0500 4.0000
v  1.0000 2.9500 4.0000
v  1.0000 2.9500 5.0000
v  2.0000 2.9500 5.0000
v  2.0000 2.9500 4.0000
# 8 vertices

vn 0.0000 1.0000 -0.0000
vn -1.0000 0.0000 0.0000
vn 0.0000 0.0000 1.0000
vn 1.0000 0.0000 -0.0000
vn -0.0000 0.0000 -1.0000
# 5 vertex normals

vt 0.0625 0.5625 0.0000
vt 0.0938 0.5625 0.0000
vt 0.0938 0.5938 0.0000
vt 0.0625 0.5938 0.0000
vt 0.0313 0.2813 0.0000
vt 0.0313 0.2826 0.0000
vt 0.0469 0.2813 0.0000
vt 0.0469 0.2826 0.0000
# 8 texture coords

g SolderSpot008
f 197/212/103 198/213/103 199/214/103 
f 199/214/103 200/215/103 197/212/103 
f 201/216/104 202/216/104 198/217/104 
f 198/217/104 197/217/104 201/216/104 
f 202/216/105 203/216/105 199/217/105 
f 199/217/105 198/217/105 202/216/105 
f 203/218/106 204/218/106 200/219/106 
f 200/219/106 199/219/106 203/218/106 
f 204/218/107 201/218/107 197/219/107 
f 197/219/107 200/219/107 204/218/107 
# 10 faces

