# 3ds Max Wavefront OBJ Exporter v0.97b - (c)2007 guruware
# File Created: 24.08.2014 21:56:36

#
# object Image
#

v  -2.5000 4.0000 -2.5000
v  -2.5000 4.0000 2.5000
v  2.5000 4.0000 -2.5000
v  2.5000 4.0000 2.5000
# 4 vertices

vn 0.0000 1.0000 -0.0000
# 1 vertex normals

vt 0.0000 0.9375 0.0000
vt 0.0000 0.0000 0.0000
vt 0.9375 0.9375 0.0000
vt 0.9375 0.0000 0.0000
# 4 texture coords

g Image
f 1/1/1 2/2/1 3/3/1 
f 4/4/1 3/3/1 2/2/1 
# 2 faces

#
# object Legs
#

v  2.7500 2.5000 -3.1000
v  2.2500 2.5000 -3.1000
v  2.2500 2.5000 -2.9500
v  2.7500 2.5000 -2.9500
v  2.7500 2.0000 -3.2000
v  2.2500 2.0000 -3.2000
v  2.2500 2.4000 -3.2000
v  2.7500 2.4000 -3.2000
v  -2.2500 2.0000 -3.2000
v  -2.7500 2.0000 -3.2000
v  -2.7500 2.4000 -3.2000
v  -2.2500 2.4000 -3.2000
v  -2.7500 2.5000 -3.1000
v  -2.2500 2.5000 -3.1000
v  -2.7500 2.5000 -2.9500
v  -2.2500 2.5000 -2.9500
v  3.2000 2.0000 -2.2500
v  3.2000 2.0000 -2.7500
v  3.2000 2.4000 -2.7500
v  3.2000 2.4000 -2.2500
v  3.1000 2.5000 -2.7500
v  3.1000 2.5000 -2.2500
v  2.9500 2.5000 -2.7500
v  2.9500 2.5000 -2.2500
v  3.2000 2.0000 2.7500
v  3.2000 2.0000 2.2500
v  3.2000 2.4000 2.2500
v  3.2000 2.4000 2.7500
v  3.1000 2.5000 2.2500
v  3.1000 2.5000 2.7500
v  2.9500 2.5000 2.2500
v  2.9500 2.5000 2.7500
v  2.2500 2.0000 3.2000
v  2.7500 2.0000 3.2000
v  2.7500 2.4000 3.2000
v  2.2500 2.4000 3.2000
v  2.7500 2.5000 3.1000
v  2.2500 2.5000 3.1000
v  2.7500 2.5000 2.9500
v  2.2500 2.5000 2.9500
v  -2.7500 2.0000 3.2000
v  -2.2500 2.0000 3.2000
v  -2.2500 2.4000 3.2000
v  -2.7500 2.4000 3.2000
v  -2.2500 2.5000 3.1000
v  -2.7500 2.5000 3.1000
v  -2.2500 2.5000 2.9500
v  -2.7500 2.5000 2.9500
v  -3.2000 2.0000 2.2500
v  -3.2000 2.0000 2.7500
v  -3.2000 2.4000 2.7500
v  -3.2000 2.4000 2.2500
v  -3.1000 2.5000 2.7500
v  -3.1000 2.5000 2.2500
v  -2.9500 2.5000 2.7500
v  -2.9500 2.5000 2.2500
v  -3.2000 2.0000 -2.7500
v  -3.2000 2.0000 -2.2500
v  -3.2000 2.4000 -2.2500
v  -3.2000 2.4000 -2.7500
v  -3.1000 2.5000 -2.2500
v  -3.1000 2.5000 -2.7500
v  -2.9500 2.5000 -2.2500
v  -2.9500 2.5000 -2.7500
# 64 vertices

vn 0.0000 0.9239 -0.3827
vn 0.0000 1.0000 -0.0000
vn 0.0000 0.0000 -1.0000
vn 0.0000 0.3827 -0.9239
vn 1.0000 0.0000 0.0000
vn 1.0000 -0.0000 -0.0000
vn 0.9239 0.3827 0.0000
vn 0.3827 0.9239 0.0000
vn 0.0000 0.0000 1.0000
vn 0.0000 0.3827 0.9239
vn 0.0000 0.9239 0.3827
vn -1.0000 0.0000 -0.0000
vn -0.9239 0.3827 -0.0000
vn -0.3827 0.9239 -0.0000
# 14 vertex normals

vt -0.0000 0.9875 0.0000
vt 0.0626 0.9875 0.0000
vt 0.0626 1.0000 0.0000
vt -0.0000 1.0000 0.0000
vt -0.0000 0.9374 0.0000
vt 0.0626 0.9374 0.0000
vt 0.0626 0.9708 0.0000
vt -0.0000 0.9708 0.0000
vt 0.0000 0.9374 0.0000
vt 0.0000 0.9708 0.0000
vt 0.0000 0.9875 0.0000
vt 0.0000 1.0000 0.0000
vt 0.0000 0.9373 0.0000
vt 0.0625 0.9373 0.0000
vt 0.0625 0.9707 0.0000
vt 0.0000 0.9707 0.0000
vt 0.0625 0.9875 0.0000
vt 0.0625 1.0000 0.0000
vt 0.0000 0.9375 0.0000
vt 0.0625 0.9375 0.0000
vt 0.0625 0.9708 0.0000
vt 0.0625 0.9709 0.0000
vt 0.0000 0.9709 0.0000
vt -0.0000 0.9376 0.0000
vt 0.0625 0.9376 0.0000
vt -0.0000 0.9709 0.0000
# 26 texture coords

g Legs
f 5/5/2 6/6/2 7/7/3 
f 7/7/3 8/8/3 5/5/2 
f 9/9/4 10/10/4 11/11/5 
f 11/11/5 12/12/5 9/9/4 
f 11/11/5 6/6/2 5/5/2 
f 5/5/2 12/12/5 11/11/5 
f 13/13/4 14/10/4 15/11/5 
f 15/11/5 16/14/5 13/13/4 
f 15/11/5 17/6/2 18/15/2 
f 18/15/2 16/14/5 15/11/5 
f 18/15/2 17/6/2 19/7/3 
f 19/7/3 20/16/3 18/15/2 
f 21/13/6 22/10/7 23/11/8 
f 23/11/8 24/14/8 21/13/6 
f 23/11/8 25/6/9 26/15/9 
f 26/15/9 24/14/8 23/11/8 
f 26/15/9 25/6/9 27/7/3 
f 27/7/3 28/16/3 26/15/9 
f 29/17/6 30/18/7 31/19/8 
f 31/19/8 32/20/8 29/17/6 
f 31/19/8 33/21/9 34/15/9 
f 34/15/9 32/20/8 31/19/8 
f 34/15/9 33/21/9 35/22/3 
f 35/22/3 36/16/3 34/15/9 
f 37/23/10 38/24/10 39/25/11 
f 39/25/11 40/14/11 37/23/10 
f 39/25/11 41/21/12 42/15/12 
f 42/15/12 40/14/11 39/25/11 
f 42/15/12 41/21/12 43/22/3 
f 43/22/3 44/16/3 42/15/12 
f 45/23/10 46/24/10 47/25/11 
f 47/25/11 48/14/11 45/23/10 
f 47/25/11 49/21/12 50/15/12 
f 50/15/12 48/14/11 47/25/11 
f 50/15/12 49/21/12 51/22/3 
f 51/22/3 52/16/3 50/15/12 
f 53/23/13 54/24/13 55/26/14 
f 55/26/14 56/27/14 53/23/13 
f 55/26/14 57/21/15 58/15/15 
f 58/15/15 56/27/14 55/26/14 
f 58/15/15 57/21/15 59/22/3 
f 59/22/3 60/16/3 58/15/15 
f 61/28/13 62/29/13 63/26/14 
f 63/26/14 64/30/14 61/28/13 
f 63/26/14 65/21/15 66/5/15 
f 66/5/15 64/30/14 63/26/14 
f 66/5/15 65/21/15 67/22/3 
f 67/22/3 68/8/3 66/5/15 
# 48 faces

#
# object EventComponent001
#

v  3.0000 3.0000 2.0000
v  2.0000 3.0000 2.0000
v  2.0000 3.0000 -2.0000
v  3.0000 3.0000 -2.0000
v  2.0000 3.0000 3.0000
v  3.0000 3.0000 3.0000
v  3.0000 4.0000 3.0000
v  -2.0000 3.0000 3.0000
v  -3.0000 3.0000 3.0000
v  -3.0000 4.0000 3.0000
v  3.0000 3.0000 -3.0000
v  3.0000 4.0000 -3.0000
v  -2.0000 3.0000 -3.0000
v  -3.0000 3.0000 -3.0000
v  -3.0000 4.0000 -3.0000
v  2.0000 3.0000 -3.0000
v  -3.0000 3.0000 2.0000
v  -3.0000 3.0000 -2.0000
v  -2.0000 3.0000 -2.0000
v  -2.0000 3.0000 2.0000
v  -3.0000 2.1000 -2.0000
v  -3.0000 2.1000 -3.0000
v  -2.0000 2.1000 -3.0000
v  -2.0000 2.1000 -2.0000
v  2.0000 2.1000 -3.0000
v  3.0000 2.1000 -3.0000
v  3.0000 2.1000 -2.0000
v  2.0000 2.1000 -2.0000
v  3.0000 2.1000 3.0000
v  2.0000 2.1000 3.0000
v  2.0000 2.1000 2.0000
v  3.0000 2.1000 2.0000
v  -2.0000 2.1000 3.0000
v  -3.0000 2.1000 3.0000
v  -3.0000 2.1000 2.0000
v  -2.0000 2.1000 2.0000
v  2.7500 4.2500 2.7500
v  -2.7500 4.2500 2.7500
v  2.7500 4.2500 -2.7500
v  -2.7500 4.2500 -2.7500
v  2.5000 4.2500 2.5000
v  -2.5000 4.2500 2.5000
v  2.5000 4.2500 -2.5000
v  -2.5000 4.2500 -2.5000
v  2.5000 4.0000 2.5000
v  -2.5000 4.0000 2.5000
v  2.5000 4.0000 -2.5000
v  -2.5000 4.0000 -2.5000
# 48 vertices

vn 0.0000 -1.0000 -0.0000
vn 0.0000 0.0000 1.0000
vn -0.0000 0.0000 1.0000
vn 1.0000 0.0000 -0.0000
vn 0.0000 0.0000 -1.0000
vn -1.0000 0.0000 -0.0000
vn 0.0000 0.7071 0.7071
vn 0.7071 0.7071 -0.0000
vn 0.0000 0.7071 -0.7071
vn -0.7071 0.7071 -0.0000
vn 0.0000 1.0000 -0.0000
# 11 vertex normals

vt 0.1875 0.4063 0.0000
vt 0.1563 0.4063 0.0000
vt 0.1563 0.2813 0.0000
vt 0.1875 0.2813 0.0000
vt 0.1563 0.0938 0.0000
vt 0.1875 0.0938 0.0000
vt 0.1875 0.1250 0.0000
vt 0.0313 0.0938 0.0000
vt 0.0000 0.0938 0.0000
vt 0.0000 0.1250 0.0000
vt 0.1563 0.1563 0.0000
vt 0.1875 0.1563 0.0000
vt 0.1875 0.1875 0.0000
vt 0.0313 0.1563 0.0000
vt 0.0000 0.1563 0.0000
vt 0.0000 0.1875 0.0000
vt 0.1563 0.2188 0.0000
vt 0.1875 0.2188 0.0000
vt 0.1875 0.2500 0.0000
vt 0.0313 0.2188 0.0000
vt 0.0000 0.2188 0.0000
vt 0.0000 0.2500 0.0000
vt 0.1563 0.0313 0.0000
vt 0.1875 0.0313 0.0000
vt 0.1875 0.0625 0.0000
vt 0.0313 0.0313 0.0000
vt 0.0000 0.0313 0.0000
vt 0.0000 0.0625 0.0000
vt 0.0313 0.2813 0.0000
vt 0.0313 0.4063 0.0000
vt 0.0000 0.2813 0.0000
vt 0.0000 0.4063 0.0000
vt 0.0313 0.2500 0.0000
vt 0.1563 0.2500 0.0000
vt 0.1875 0.4375 0.0000
vt 0.1563 0.4375 0.0000
vt 0.0313 0.4375 0.0000
vt 0.0000 0.4375 0.0000
vt 0.1563 0.1875 0.0000
vt 0.4375 0.4063 0.0000
vt 0.4063 0.4063 0.0000
vt 0.4063 0.3750 0.0000
vt 0.4375 0.3750 0.0000
vt 0.2813 0.3438 0.0000
vt 0.2500 0.3438 0.0000
vt 0.2500 0.3125 0.0000
vt 0.2813 0.3125 0.0000
vt 0.0000 0.0000 0.0000
vt 0.0313 0.0000 0.0000
vt 0.1563 0.1250 0.0000
vt 0.4375 0.3438 0.0000
vt 0.4063 0.3438 0.0000
vt 0.4063 0.3125 0.0000
vt 0.4375 0.3125 0.0000
vt 0.2813 0.2813 0.0000
vt 0.2500 0.2813 0.0000
vt 0.2500 0.2500 0.0000
vt 0.2813 0.2500 0.0000
vt 0.0313 0.1875 0.0000
vt 0.1563 0.0625 0.0000
vt 0.4375 0.2813 0.0000
vt 0.4063 0.2813 0.0000
vt 0.4063 0.2500 0.0000
vt 0.4375 0.2500 0.0000
vt 0.2813 0.4688 0.0000
vt 0.2500 0.4688 0.0000
vt 0.2500 0.4375 0.0000
vt 0.2813 0.4375 0.0000
vt 0.0313 0.1250 0.0000
vt 0.1563 0.0000 0.0000
vt 0.1875 0.0000 0.0000
vt 0.4375 0.4688 0.0000
vt 0.4063 0.4688 0.0000
vt 0.4063 0.4375 0.0000
vt 0.4375 0.4375 0.0000
vt 0.2813 0.4063 0.0000
vt 0.2500 0.4063 0.0000
vt 0.2500 0.3750 0.0000
vt 0.2813 0.3750 0.0000
vt 0.0313 0.0625 0.0000
vt 0.2500 0.0938 0.0000
vt 0.4375 0.0938 0.0000
vt 0.2500 0.1563 0.0000
vt 0.4375 0.1563 0.0000
vt 0.2500 0.2188 0.0000
vt 0.4375 0.2188 0.0000
vt 0.2500 0.0313 0.0000
vt 0.4375 0.0313 0.0000
vt 0.4063 0.1250 0.0000
vt 0.2813 0.1250 0.0000
vt 0.4063 0.1875 0.0000
vt 0.2813 0.1875 0.0000
vt 0.4063 0.0625 0.0000
vt 0.2813 0.0625 0.0000
vt 1.0000 0.0000 0.0000
vt 1.0000 1.0000 0.0000
vt 0.0000 1.0000 0.0000
# 97 texture coords

g EventComponent001
f 69/31/16 70/32/16 71/33/16 
f 71/33/16 72/34/16 69/31/16 
f 73/35/17 74/36/17 75/37/17 
f 76/38/18 73/35/17 75/37/17 
f 77/39/17 76/38/18 75/37/17 
f 77/39/17 75/37/17 78/40/17 
f 72/41/19 79/42/19 80/43/19 
f 69/44/19 72/41/19 80/43/19 
f 74/45/19 69/44/19 80/43/19 
f 74/45/19 80/43/19 75/46/19 
f 81/47/20 82/48/20 83/49/20 
f 84/50/20 81/47/20 83/49/20 
f 79/51/20 84/50/20 83/49/20 
f 79/51/20 83/49/20 80/52/20 
f 85/53/21 77/54/21 78/55/21 
f 86/56/21 85/53/21 78/55/21 
f 82/57/21 86/56/21 78/55/21 
f 82/57/21 78/55/21 83/58/21 
f 87/59/16 71/33/16 70/32/16 
f 70/32/16 88/60/16 87/59/16 
f 86/61/16 87/59/16 88/60/16 
f 88/60/16 85/62/16 86/61/16 
f 89/61/16 90/52/16 91/63/16 
f 91/63/16 92/59/16 89/61/16 
f 87/59/16 81/63/16 84/64/16 
f 84/64/16 71/33/16 87/59/16 
f 93/64/16 94/49/16 95/34/16 
f 95/34/16 96/33/16 93/64/16 
f 97/65/16 98/66/16 99/32/16 
f 99/32/16 100/31/16 97/65/16 
f 73/66/16 76/67/16 88/60/16 
f 88/60/16 70/32/16 73/66/16 
f 101/67/16 102/68/16 103/62/16 
f 103/62/16 104/60/16 101/67/16 
f 82/48/20 81/47/20 91/69/20 
f 91/69/20 90/43/20 82/48/20 
f 81/70/19 87/71/19 92/72/19 
f 92/72/19 91/73/19 81/70/19 
f 87/74/17 86/75/17 89/76/17 
f 89/76/17 92/77/17 87/74/17 
f 86/56/21 82/57/21 90/78/21 
f 90/78/21 89/79/21 86/56/21 
f 79/42/19 72/41/19 95/80/19 
f 95/80/19 94/37/19 79/42/19 
f 72/81/17 71/82/17 96/83/17 
f 96/83/17 95/84/17 72/81/17 
f 71/85/21 84/86/21 93/87/21 
f 93/87/21 96/88/21 71/85/21 
f 84/50/20 79/51/20 94/46/20 
f 94/46/20 93/89/20 84/50/20 
f 74/36/17 73/35/17 98/90/17 
f 98/90/17 97/55/17 74/36/17 
f 73/91/21 70/92/21 99/93/21 
f 99/93/21 98/94/21 73/91/21 
f 70/95/20 69/96/20 100/97/20 
f 100/97/20 99/98/20 70/95/20 
f 69/44/19 74/45/19 97/40/19 
f 97/40/19 100/99/19 69/44/19 
f 77/54/21 85/53/21 103/100/21 
f 103/100/21 102/101/21 77/54/21 
f 85/102/20 88/103/20 104/104/20 
f 104/104/20 103/105/20 85/102/20 
f 88/106/19 76/107/19 101/108/19 
f 101/108/19 104/109/19 88/106/19 
f 76/38/17 77/39/17 102/58/17 
f 102/58/17 101/110/17 76/38/17 
f 78/111/22 75/112/22 105/112/22 
f 105/112/22 106/111/22 78/111/22 
f 75/113/23 80/114/23 107/114/23 
f 107/114/23 105/113/23 75/113/23 
f 80/115/24 83/116/24 108/116/24 
f 108/116/24 107/115/24 80/115/24 
f 83/117/25 78/118/25 106/118/25 
f 106/118/25 108/117/25 83/117/25 
f 106/111/26 105/112/26 109/119/26 
f 109/119/26 110/120/26 106/111/26 
f 105/113/26 107/114/26 111/121/26 
f 111/121/26 109/122/26 105/113/26 
f 107/115/26 108/116/26 112/93/26 
f 112/93/26 111/88/26 107/115/26 
f 108/117/26 106/118/26 110/123/26 
f 110/123/26 112/124/26 108/117/26 
f 110/78/20 109/125/20 113/125/20 
f 113/125/20 114/78/20 110/78/20 
f 109/125/21 111/126/21 115/126/21 
f 115/126/21 113/125/21 109/125/21 
f 111/126/17 112/127/17 116/127/17 
f 116/127/17 115/126/17 111/126/17 
f 112/127/19 110/78/19 114/78/19 
f 114/78/19 116/127/19 112/127/19 
# 90 faces

